TitilliumWeb-BoldItalic.ufo
<glyph name="exclam" format="2">
  <advance width="163"/>
  <unicode hex="0021"/>
  <outline>
    <contour>
      <point x="77" y="258" type="line" name="hr00"/>
      <point x="203" y="258" type="line"/>
      <point x="315" y="700" type="line"/>
      <point x="172" y="700" type="line"/>
    </contour>
    <contour>
      <point x="14" y="0" type="line"/>
      <point x="150" y="0" type="line"/>
      <point x="185" y="153" type="line"/>
      <point x="49" y="153" type="line"/>
    </contour>
  </outline>
</glyph>
<glyph name="numbersign" format="2">
  <advance width="560"/>
  <unicode hex="0023"/>
  <outline>
    <contour>
      <point x="106" y="0" type="line"/>
      <point x="222" y="0" type="line"/>
      <point x="263" y="165" type="line"/>
      <point x="367" y="165" type="line"/>
      <point x="326" y="0" type="line"/>
      <point x="442" y="0" type="line"/>
      <point x="483" y="165" type="line"/>
      <point x="579" y="165" type="line" name="hr00"/>
      <point x="607" y="277" type="line"/>
      <point x="511" y="277" type="line"/>
      <point x="537" y="383" type="line"/>
      <point x="633" y="383" type="line"/>
      <point x="661" y="495" type="line"/>
      <point x="565" y="495" type="line"/>
      <point x="606" y="660" type="line"/>
      <point x="490" y="660" type="line"/>
      <point x="449" y="495" type="line"/>
      <point x="345" y="495" type="line"/>
      <point x="386" y="660" type="line"/>
      <point x="270" y="660" type="line"/>
      <point x="229" y="495" type="line"/>
      <point x="133" y="495" type="line"/>
      <point x="105" y="383" type="line"/>
      <point x="201" y="383" type="line"/>
      <point x="175" y="277" type="line"/>
      <point x="79" y="277" type="line"/>
      <point x="51" y="165" type="line"/>
      <point x="147" y="165" type="line"/>
    </contour>
    <contour>
      <point x="291" y="277" type="line"/>
      <point x="317" y="383" type="line"/>
      <point x="421" y="383" type="line"/>
      <point x="395" y="277" type="line"/>
    </contour>
  </outline>
</glyph>
<glyph name="percent" format="2">
  <advance width="560"/>
  <unicode hex="0025"/>
  <outline>
    <contour>
      <point x="187" y="-24" type="line"/>
      <point x="611" y="690" type="line"/>
      <point x="532" y="720" type="line"/>
      <point x="108" y="6" type="line"/>
    </contour>
    <contour>
      <point x="415" y="0" type="curve" smooth="yes"/>
      <point x="492" y="0"/>
      <point x="547" y="49"/>
      <point x="571" y="146" type="curve" smooth="yes"/>
      <point x="595" y="243"/>
      <point x="564" y="291"/>
      <point x="487" y="291" type="curve" smooth="yes"/>
      <point x="410" y="291"/>
      <point x="355" y="243"/>
      <point x="331" y="146" type="curve" smooth="yes"/>
      <point x="307" y="49"/>
      <point x="338" y="0"/>
    </contour>
    <contour>
      <point x="434" y="80" type="curve" smooth="yes"/>
      <point x="416" y="80"/>
      <point x="417" y="100"/>
      <point x="429" y="146" type="curve" smooth="yes"/>
      <point x="440" y="192"/>
      <point x="449" y="211"/>
      <point x="467" y="211" type="curve" smooth="yes"/>
      <point x="485" y="211"/>
      <point x="484" y="192"/>
      <point x="473" y="146" type="curve" smooth="yes"/>
      <point x="461" y="100"/>
      <point x="452" y="80"/>
    </contour>
    <contour>
      <point x="235" y="410" type="curve" smooth="yes"/>
      <point x="312" y="410"/>
      <point x="367" y="459"/>
      <point x="391" y="556" type="curve" smooth="yes"/>
      <point x="415" y="653"/>
      <point x="384" y="701"/>
      <point x="307" y="701" type="curve" smooth="yes"/>
      <point x="230" y="701"/>
      <point x="175" y="653"/>
      <point x="151" y="556" type="curve" smooth="yes"/>
      <point x="127" y="459"/>
      <point x="158" y="410"/>
    </contour>
    <contour>
      <point x="255" y="490" type="curve" smooth="yes"/>
      <point x="237" y="490"/>
      <point x="238" y="510"/>
      <point x="249" y="556" type="curve" smooth="yes"/>
      <point x="261" y="602"/>
      <point x="269" y="621"/>
      <point x="287" y="621" type="curve" smooth="yes" name="hr00"/>
      <point x="305" y="621"/>
      <point x="305" y="602"/>
      <point x="293" y="556" type="curve" smooth="yes"/>
      <point x="282" y="510"/>
      <point x="273" y="490"/>
    </contour>
  </outline>
</glyph>
<glyph name="parenleft" format="2">
  <advance width="234"/>
  <unicode hex="0028"/>
  <outline>
    <contour>
      <point x="80" y="-123" type="curve"/>
      <point x="208" y="-123" type="line"/>
      <point x="201" y="-74"/>
      <point x="192" y="30"/>
      <point x="192" y="132" type="curve" smooth="yes"/>
      <point x="192" y="342"/>
      <point x="317" y="607"/>
      <point x="412" y="748" type="curve" name="hr00"/>
      <point x="287" y="748" type="line"/>
      <point x="186" y="619"/>
      <point x="51" y="363"/>
      <point x="51" y="132" type="curve" smooth="yes"/>
      <point x="51" y="17"/>
      <point x="68" y="-81"/>
    </contour>
  </outline>
</glyph>
<glyph name="parenright" format="2">
  <advance width="235"/>
  <unicode hex="0029"/>
  <outline>
    <contour>
      <point x="300" y="753" type="curve"/>
      <point x="172" y="753" type="line"/>
      <point x="179" y="704"/>
      <point x="188" y="600"/>
      <point x="188" y="498" type="curve" smooth="yes"/>
      <point x="188" y="288"/>
      <point x="63" y="23"/>
      <point x="-32" y="-118" type="curve"/>
      <point x="93" y="-118" type="line"/>
      <point x="194" y="11"/>
      <point x="329" y="267"/>
      <point x="329" y="498" type="curve" smooth="yes"/>
      <point x="329" y="613"/>
      <point x="312" y="711"/>
    </contour>
  </outline>
</glyph>
<glyph name="asterisk" format="2">
  <advance width="423"/>
  <unicode hex="002A"/>
  <outline>
    <contour>
      <point x="353" y="357" type="line"/>
      <point x="426" y="379" type="line"/>
      <point x="388" y="499" type="line"/>
      <point x="511" y="499" type="line" name="hr00"/>
      <point x="511" y="573" type="line"/>
      <point x="388" y="573" type="line"/>
      <point x="426" y="695" type="line"/>
      <point x="351" y="720" type="line"/>
      <point x="312" y="599" type="line"/>
      <point x="211" y="672" type="line"/>
      <point x="165" y="609" type="line"/>
      <point x="267" y="536" type="line"/>
      <point x="162" y="458" type="line"/>
      <point x="209" y="399" type="line"/>
      <point x="312" y="478" type="line"/>
    </contour>
  </outline>
</glyph>
<glyph name="plus" format="2">
  <advance width="560"/>
  <unicode hex="002B"/>
  <outline>
    <contour>
      <point x="276" y="21" type="line"/>
      <point x="396" y="21" type="line"/>
      <point x="396" y="191" type="line"/>
      <point x="567" y="191" type="line" name="hr02"/>
      <point x="567" y="311" type="line"/>
      <point x="396" y="311" type="line" name="hr03"/>
      <point x="396" y="479" type="line"/>
      <point x="276" y="479" type="line"/>
      <point x="276" y="311" type="line"/>
      <point x="107" y="311" type="line" name="hr04"/>
      <point x="107" y="191" type="line"/>
      <point x="276" y="191" type="line" name="hr01"/>
    </contour>
  </outline>
</glyph>
<glyph name="comma" format="2">
  <advance width="175"/>
  <unicode hex="002C"/>
  <outline>
    <contour>
      <point x="-53" y="-130" type="line" name="hr00"/>
      <point x="58" y="-130" type="line"/>
      <point x="211" y="153" type="line"/>
      <point x="64" y="153" type="line"/>
    </contour>
  </outline>
</glyph>
<glyph name="period" format="2">
  <advance width="152"/>
  <unicode hex="002E"/>
  <outline>
    <contour>
      <point x="8" y="0" type="line" name="hr00"/>
      <point x="144" y="0" type="line"/>
      <point x="179" y="153" type="line"/>
      <point x="43" y="153" type="line"/>
    </contour>
  </outline>
</glyph>
<glyph name="zero" format="2">
  <advance width="560"/>
  <unicode hex="0030"/>
  <outline>
    <contour>
      <point x="311" y="-12" type="curve" smooth="yes"/>
      <point x="485" y="-12"/>
      <point x="617" y="173"/>
      <point x="617" y="460" type="curve" smooth="yes"/>
      <point x="617" y="594"/>
      <point x="555" y="672"/>
      <point x="401" y="672" type="curve" smooth="yes" name="hr00"/>
      <point x="227" y="672"/>
      <point x="95" y="487"/>
      <point x="95" y="200" type="curve" smooth="yes"/>
      <point x="95" y="66"/>
      <point x="157" y="-12"/>
    </contour>
    <contour>
      <point x="313" y="106" type="curve" smooth="yes"/>
      <point x="252" y="106"/>
      <point x="236" y="144"/>
      <point x="236" y="218" type="curve" smooth="yes"/>
      <point x="236" y="357"/>
      <point x="297" y="554"/>
      <point x="398" y="554" type="curve" smooth="yes"/>
      <point x="460" y="554"/>
      <point x="476" y="516"/>
      <point x="476" y="440" type="curve" smooth="yes"/>
      <point x="476" y="303"/>
      <point x="415" y="106"/>
    </contour>
  </outline>
</glyph>
<glyph name="one" format="2">
  <advance width="560"/>
  <unicode hex="0031"/>
  <outline>
    <contour>
      <point x="279" y="0" type="line"/>
      <point x="416" y="0" type="line"/>
      <point x="568" y="660" type="line"/>
      <point x="449" y="660" type="line"/>
      <point x="194" y="516" type="line" name="hr00"/>
      <point x="231" y="408" type="line"/>
      <point x="394" y="498" type="line"/>
    </contour>
  </outline>
</glyph>
<glyph name="two" format="2">
  <advance width="560"/>
  <unicode hex="0032"/>
  <outline>
    <contour>
      <point x="63" y="0" type="line"/>
      <point x="488" y="0" type="line" name="hr00"/>
      <point x="517" y="118" type="line"/>
      <point x="250" y="118" type="line"/>
      <point x="432" y="256" type="line"/>
      <point x="537" y="336"/>
      <point x="602" y="400"/>
      <point x="602" y="519" type="curve" smooth="yes"/>
      <point x="602" y="625"/>
      <point x="540" y="672"/>
      <point x="404" y="672" type="curve" smooth="yes"/>
      <point x="342" y="672"/>
      <point x="264" y="653"/>
      <point x="223" y="639" type="curve"/>
      <point x="205" y="539" type="line"/>
      <point x="244" y="545"/>
      <point x="313" y="554"/>
      <point x="363" y="554" type="curve" smooth="yes"/>
      <point x="440" y="554"/>
      <point x="461" y="536"/>
      <point x="461" y="485" type="curve" smooth="yes"/>
      <point x="461" y="439"/>
      <point x="406" y="386"/>
      <point x="289" y="285" type="curve" smooth="yes"/>
      <point x="90" y="112" type="line"/>
    </contour>
  </outline>
</glyph>
<glyph name="three" format="2">
  <advance width="560"/>
  <unicode hex="0033"/>
  <outline>
    <contour>
      <point x="259" y="-12" type="curve" smooth="yes"/>
      <point x="430" y="-12"/>
      <point x="543" y="83"/>
      <point x="543" y="223" type="curve" smooth="yes"/>
      <point x="543" y="294"/>
      <point x="526" y="320"/>
      <point x="480" y="347" type="curve"/>
      <point x="568" y="392"/>
      <point x="600" y="437"/>
      <point x="600" y="529" type="curve" smooth="yes"/>
      <point x="600" y="629"/>
      <point x="537" y="672"/>
      <point x="401" y="672" type="curve" smooth="yes"/>
      <point x="328" y="672"/>
      <point x="250" y="649"/>
      <point x="212" y="631" type="curve"/>
      <point x="198" y="541" type="line" name="hr00"/>
      <point x="238" y="547"/>
      <point x="312" y="554"/>
      <point x="369" y="554" type="curve" smooth="yes"/>
      <point x="432" y="554"/>
      <point x="459" y="532"/>
      <point x="459" y="492" type="curve" smooth="yes"/>
      <point x="459" y="433"/>
      <point x="392.988" y="384.279"/>
      <point x="344" y="382" type="curve" smooth="yes"/>
      <point x="215" y="376" type="line"/>
      <point x="190" y="274" type="line"/>
      <point x="316" y="272" type="line"/>
      <point x="382" y="271"/>
      <point x="402" y="255"/>
      <point x="402" y="217" type="curve" smooth="yes"/>
      <point x="402" y="144"/>
      <point x="340" y="106"/>
      <point x="271" y="106" type="curve" smooth="yes"/>
      <point x="221" y="106"/>
      <point x="137" y="113"/>
      <point x="88" y="118" type="curve"/>
      <point x="59" y="24" type="line"/>
      <point x="103" y="9"/>
      <point x="187" y="-12"/>
    </contour>
  </outline>
</glyph>
<glyph name="four" format="2">
  <advance width="560"/>
  <unicode hex="0034"/>
  <outline>
    <contour>
      <point x="322" y="-5" type="line" name="hr00"/>
      <point x="458" y="-5" type="line"/>
      <point x="485" y="112" type="line"/>
      <point x="545" y="112" type="line"/>
      <point x="572" y="226" type="line"/>
      <point x="511" y="226" type="line"/>
      <point x="552" y="404" type="line"/>
      <point x="416" y="404" type="line"/>
      <point x="375" y="226" type="line"/>
      <point x="240" y="226" type="line"/>
      <point x="519" y="660" type="line"/>
      <point x="369" y="660" type="line"/>
      <point x="93" y="212" type="line"/>
      <point x="70" y="112" type="line"/>
      <point x="349" y="112" type="line"/>
    </contour>
  </outline>
</glyph>
<glyph name="six" format="2">
  <advance width="560"/>
  <unicode hex="0036"/>
  <outline>
    <contour>
      <point x="312" y="-12" type="curve" smooth="yes"/>
      <point x="489" y="-12"/>
      <point x="583" y="97"/>
      <point x="583" y="251" type="curve" smooth="yes"/>
      <point x="583" y="360"/>
      <point x="531" y="425"/>
      <point x="402" y="425" type="curve" smooth="yes"/>
      <point x="362" y="425"/>
      <point x="301" y="405"/>
      <point x="267" y="390" type="curve"/>
      <point x="303" y="491"/>
      <point x="354" y="554"/>
      <point x="440" y="554" type="curve" smooth="yes"/>
      <point x="498" y="554"/>
      <point x="563" y="545"/>
      <point x="597" y="539" type="curve"/>
      <point x="640" y="650" type="line" name="hr00"/>
      <point x="600" y="659"/>
      <point x="526" y="672"/>
      <point x="472" y="672" type="curve" smooth="yes"/>
      <point x="233" y="672"/>
      <point x="99" y="420"/>
      <point x="99" y="223" type="curve" smooth="yes"/>
      <point x="99" y="60"/>
      <point x="184" y="-12"/>
    </contour>
    <contour>
      <point x="321" y="106" type="curve" smooth="yes"/>
      <point x="260" y="106"/>
      <point x="240" y="167"/>
      <point x="240" y="219" type="curve" smooth="yes"/>
      <point x="240" y="243"/>
      <point x="245" y="266"/>
      <point x="249" y="283" type="curve"/>
      <point x="270" y="293"/>
      <point x="314" y="307"/>
      <point x="361" y="307" type="curve" smooth="yes"/>
      <point x="408" y="307"/>
      <point x="442" y="292"/>
      <point x="442" y="238" type="curve" smooth="yes"/>
      <point x="442" y="152"/>
      <point x="400" y="106"/>
    </contour>
  </outline>
</glyph>
<glyph name="seven" format="2">
  <advance width="560"/>
  <unicode hex="0037"/>
  <outline>
    <contour>
      <point x="242" y="-18" type="line"/>
      <point x="596" y="487" type="line"/>
      <point x="636" y="660" type="line"/>
      <point x="224" y="660" type="line"/>
      <point x="197" y="542" type="line" name="hr00"/>
      <point x="472" y="542" type="line"/>
      <point x="464" y="501" type="line"/>
      <point x="117" y="18" type="line"/>
    </contour>
  </outline>
</glyph>
<glyph name="equal" format="2">
  <advance width="560"/>
  <unicode hex="003D"/>
  <outline>
    <contour>
      <point x="116" y="295" type="line" name="hr00"/>
      <point x="560" y="295" type="line"/>
      <point x="560" y="416" type="line"/>
      <point x="116" y="416" type="line"/>
    </contour>
    <contour>
      <point x="116" y="87" type="line"/>
      <point x="560" y="87" type="line"/>
      <point x="560" y="208" type="line"/>
      <point x="116" y="208" type="line"/>
    </contour>
  </outline>
</glyph>
<glyph name="at" format="2">
  <advance width="959"/>
  <unicode hex="0040"/>
  <outline>
    <contour>
      <point x="466" y="-207" type="curve" smooth="yes"/>
      <point x="499" y="-207"/>
      <point x="566" y="-201"/>
      <point x="608" y="-197" type="curve"/>
      <point x="634" y="-86" type="line"/>
      <point x="591" y="-90"/>
      <point x="525" y="-95"/>
      <point x="497" y="-95" type="curve" smooth="yes"/>
      <point x="229" y="-95"/>
      <point x="170.819" y="84.043"/>
      <point x="215" y="271" type="curve" smooth="yes"/>
      <point x="265.819" y="486.043"/>
      <point x="383" y="615"/>
      <point x="615" y="615" type="curve" smooth="yes"/>
      <point x="909" y="615"/>
      <point x="921.404" y="473.898"/>
      <point x="879" y="307" type="curve" smooth="yes"/>
      <point x="843.404" y="166.897"/>
      <point x="816" y="117"/>
      <point x="777" y="117" type="curve" smooth="yes"/>
      <point x="750" y="117"/>
      <point x="734" y="126"/>
      <point x="737" y="150" type="curve" smooth="yes"/>
      <point x="741" y="182"/>
      <point x="800" y="444"/>
      <point x="808" y="479" type="curve"/>
      <point x="695" y="498"/>
      <point x="608" y="512"/>
      <point x="564" y="512" type="curve" smooth="yes"/>
      <point x="421" y="512"/>
      <point x="343.774" y="402.045"/>
      <point x="312" y="242" type="curve" smooth="yes"/>
      <point x="289.774" y="130.045"/>
      <point x="308" y="-12"/>
      <point x="445" y="-12" type="curve" smooth="yes"/>
      <point x="504" y="-12"/>
      <point x="594" y="14"/>
      <point x="634" y="34" type="curve"/>
      <point x="654" y="4"/>
      <point x="691" y="-10"/>
      <point x="747" y="-10" type="curve" smooth="yes"/>
      <point x="876" y="-10"/>
      <point x="943.091" y="77.976"/>
      <point x="1000" y="295" type="curve" smooth="yes"/>
      <point x="1061.09" y="527.976"/>
      <point x="985" y="727"/>
      <point x="635" y="727" type="curve" smooth="yes" name="hr00"/>
      <point x="345" y="727"/>
      <point x="169.906" y="601.023"/>
      <point x="91" y="271" type="curve" smooth="yes"/>
      <point x="32.906" y="28.022"/>
      <point x="147" y="-207"/>
    </contour>
    <contour>
      <point x="480" y="102" type="curve" smooth="yes"/>
      <point x="440.977" y="103.482"/>
      <point x="429" y="162"/>
      <point x="447" y="242" type="curve" smooth="yes"/>
      <point x="465" y="322"/>
      <point x="496" y="398"/>
      <point x="563" y="398" type="curve" smooth="yes"/>
      <point x="585" y="398"/>
      <point x="631" y="389"/>
      <point x="654" y="384" type="curve"/>
      <point x="635" y="304"/>
      <point x="605" y="174"/>
      <point x="602" y="140" type="curve"/>
      <point x="571" y="121"/>
      <point x="519.984" y="100.482"/>
    </contour>
  </outline>
</glyph>
<glyph name="A" format="2">
  <advance width="551"/>
  <unicode hex="0041"/>
  <outline>
    <contour>
      <point x="13" y="0" type="line" name="hr00"/>
      <point x="151" y="0" type="line"/>
      <point x="204" y="118" type="line"/>
      <point x="402" y="118" type="line"/>
      <point x="398" y="0" type="line"/>
      <point x="536" y="0" type="line"/>
      <point x="557" y="680" type="line"/>
      <point x="319" y="680" type="line"/>
    </contour>
    <contour>
      <point x="256" y="238" type="line"/>
      <point x="400" y="560" type="line"/>
      <point x="421" y="560" type="line"/>
      <point x="407" y="238" type="line"/>
    </contour>
  </outline>
</glyph>
<glyph name="C" format="2">
  <advance width="494"/>
  <unicode hex="0043"/>
  <outline>
    <contour>
      <point x="304" y="-12" type="curve" smooth="yes"/>
      <point x="359" y="-12"/>
      <point x="433" y="3"/>
      <point x="473" y="14" type="curve"/>
      <point x="484" y="121" type="line" name="hr00"/>
      <point x="448" y="115"/>
      <point x="379" y="108"/>
      <point x="322" y="108" type="curve" smooth="yes"/>
      <point x="265" y="108"/>
      <point x="241" y="140"/>
      <point x="241" y="195" type="curve" smooth="yes"/>
      <point x="241" y="385"/>
      <point x="315" y="572"/>
      <point x="444" y="572" type="curve" smooth="yes"/>
      <point x="504" y="572"/>
      <point x="561" y="565"/>
      <point x="588" y="560" type="curve"/>
      <point x="620" y="662" type="line"/>
      <point x="582" y="675"/>
      <point x="509" y="692"/>
      <point x="449" y="692" type="curve" smooth="yes"/>
      <point x="190" y="692"/>
      <point x="99" y="396"/>
      <point x="99" y="185" type="curve" smooth="yes"/>
      <point x="99" y="59"/>
      <point x="165" y="-12"/>
    </contour>
  </outline>
</glyph>
<glyph name="G" format="2">
  <advance width="568"/>
  <unicode hex="0047"/>
  <outline>
    <contour>
      <point x="327" y="-12" type="curve" smooth="yes"/>
      <point x="419" y="-12"/>
      <point x="492" y="3"/>
      <point x="521" y="14" type="curve"/>
      <point x="606" y="378" type="line"/>
      <point x="405" y="378" type="line"/>
      <point x="378" y="264" type="line" name="hr00"/>
      <point x="442" y="264" type="line"/>
      <point x="407" y="113" type="line"/>
      <point x="395" y="111"/>
      <point x="369" y="108"/>
      <point x="344" y="108" type="curve" smooth="yes"/>
      <point x="284" y="108"/>
      <point x="244" y="134"/>
      <point x="244" y="201" type="curve" smooth="yes"/>
      <point x="244" y="355"/>
      <point x="302" y="572"/>
      <point x="454" y="572" type="curve" smooth="yes"/>
      <point x="518" y="572"/>
      <point x="598" y="561"/>
      <point x="641" y="552" type="curve"/>
      <point x="673" y="652" type="line"/>
      <point x="631" y="669"/>
      <point x="545" y="692"/>
      <point x="465" y="692" type="curve" smooth="yes"/>
      <point x="215" y="692"/>
      <point x="102" y="456"/>
      <point x="102" y="202" type="curve" smooth="yes"/>
      <point x="102" y="59"/>
      <point x="180" y="-12"/>
    </contour>
  </outline>
</glyph>
<glyph name="I" format="2">
  <advance width="268"/>
  <unicode hex="0049"/>
  <outline>
    <contour>
      <point x="65" y="0" type="line" name="hr00"/>
      <point x="203" y="0" type="line"/>
      <point x="360" y="680" type="line"/>
      <point x="222" y="680" type="line"/>
    </contour>
  </outline>
</glyph>
<glyph name="J" format="2">
  <advance width="283"/>
  <unicode hex="004A"/>
  <outline>
    <contour>
      <point x="6" y="-69" type="line"/>
      <point x="181" y="-69"/>
      <point x="209.927" y="-46.983"/>
      <point x="252" y="135" type="curve" smooth="yes"/>
      <point x="378" y="680" type="line" name="hr00"/>
      <point x="240" y="680" type="line"/>
      <point x="114" y="135" type="line"/>
      <point x="96" y="57"/>
      <point x="82" y="53"/>
      <point x="29" y="51" type="curve"/>
    </contour>
  </outline>
</glyph>
<glyph name="K" format="2">
  <advance width="540"/>
  <unicode hex="004B"/>
  <outline>
    <contour>
      <point x="65" y="0" type="line"/>
      <point x="203" y="0" type="line"/>
      <point x="264" y="266" type="line"/>
      <point x="340" y="273" type="line"/>
      <point x="384" y="0" type="line" name="hr00"/>
      <point x="529" y="0" type="line"/>
      <point x="466" y="339" type="line"/>
      <point x="683" y="680" type="line"/>
      <point x="532" y="680" type="line"/>
      <point x="356" y="394" type="line"/>
      <point x="292" y="386" type="line"/>
      <point x="360" y="680" type="line"/>
      <point x="222" y="680" type="line"/>
    </contour>
  </outline>
</glyph>
<glyph name="M" format="2">
  <advance width="789"/>
  <unicode hex="004D"/>
  <outline>
    <contour>
      <point x="65" y="0" type="line" name="hr00"/>
      <point x="203" y="0" type="line"/>
      <point x="331" y="560" type="line"/>
      <point x="336" y="560" type="line"/>
      <point x="337" y="30" type="line"/>
      <point x="467" y="30" type="line"/>
      <point x="710" y="560" type="line"/>
      <point x="716" y="560" type="line"/>
      <point x="586" y="0" type="line"/>
      <point x="724" y="0" type="line"/>
      <point x="881" y="680" type="line"/>
      <point x="663" y="680" type="line"/>
      <point x="437" y="185" type="line"/>
      <point x="436" y="680" type="line"/>
      <point x="222" y="680" type="line"/>
    </contour>
  </outline>
</glyph>
<glyph name="N" format="2">
  <advance width="651"/>
  <unicode hex="004E"/>
  <outline>
    <contour>
      <point x="65" y="0" type="line" name="hr00"/>
      <point x="195" y="0" type="line"/>
      <point x="322" y="543" type="line"/>
      <point x="334" y="543" type="line"/>
      <point x="378" y="0" type="line"/>
      <point x="586" y="0" type="line"/>
      <point x="743" y="680" type="line"/>
      <point x="610" y="680" type="line"/>
      <point x="489" y="147" type="line"/>
      <point x="477" y="147" type="line"/>
      <point x="441" y="680" type="line"/>
      <point x="222" y="680" type="line"/>
    </contour>
  </outline>
</glyph>
<glyph name="O" format="2">
  <advance width="615"/>
  <unicode hex="004F"/>
  <outline>
    <contour>
      <point x="315" y="-12" type="curve" smooth="yes"/>
      <point x="386" y="-12"/>
      <point x="456" y="8"/>
      <point x="505" y="46" type="curve" smooth="yes"/>
      <point x="619" y="135"/>
      <point x="669" y="312"/>
      <point x="669" y="484" type="curve" smooth="yes"/>
      <point x="669" y="631"/>
      <point x="583" y="692"/>
      <point x="448" y="692" type="curve" smooth="yes"/>
      <point x="373" y="692"/>
      <point x="308" y="669"/>
      <point x="257" y="625" type="curve" smooth="yes"/>
      <point x="151" y="533"/>
      <point x="101" y="362"/>
      <point x="101" y="196" type="curve" smooth="yes"/>
      <point x="101" y="52"/>
      <point x="183" y="-12"/>
    </contour>
    <contour>
      <point x="339" y="108" type="curve" smooth="yes" name="hr00"/>
      <point x="267" y="108"/>
      <point x="243" y="137"/>
      <point x="243" y="210" type="curve" smooth="yes"/>
      <point x="243" y="310"/>
      <point x="280" y="472"/>
      <point x="351" y="542" type="curve" smooth="yes"/>
      <point x="373" y="564"/>
      <point x="402" y="572"/>
      <point x="432" y="572" type="curve" smooth="yes"/>
      <point x="503" y="572"/>
      <point x="527" y="543"/>
      <point x="527" y="470" type="curve" smooth="yes"/>
      <point x="527" y="356"/>
      <point x="489" y="208"/>
      <point x="423" y="142" type="curve" smooth="yes"/>
      <point x="400" y="119"/>
      <point x="370" y="108"/>
    </contour>
  </outline>
</glyph>
<glyph name="R" format="2">
  <advance width="559"/>
  <unicode hex="0052"/>
  <outline>
    <contour>
      <point x="65" y="0" type="line"/>
      <point x="203" y="0" type="line"/>
      <point x="253" y="216" type="line"/>
      <point x="348" y="216" type="line" name="hr00"/>
      <point x="393" y="0" type="line"/>
      <point x="531" y="0" type="line"/>
      <point x="476" y="235" type="line"/>
      <point x="559" y="268"/>
      <point x="628" y="356"/>
      <point x="628" y="486" type="curve" smooth="yes"/>
      <point x="628" y="625"/>
      <point x="559" y="680"/>
      <point x="418" y="680" type="curve"/>
      <point x="222" y="680" type="line"/>
    </contour>
    <contour>
      <point x="280" y="334" type="line"/>
      <point x="333" y="562" type="line"/>
      <point x="410" y="562" type="line" smooth="yes"/>
      <point x="467" y="562"/>
      <point x="486" y="537"/>
      <point x="486" y="480" type="curve" smooth="yes"/>
      <point x="486" y="405"/>
      <point x="444" y="334"/>
      <point x="369" y="334" type="curve"/>
    </contour>
  </outline>
</glyph>
<glyph name="X" format="2">
  <advance width="520"/>
  <unicode hex="0058"/>
  <outline>
    <contour>
      <point x="1" y="0" type="line"/>
      <point x="146" y="0" type="line"/>
      <point x="315" y="243" type="line"/>
      <point x="370" y="0" type="line"/>
      <point x="515" y="0" type="line"/>
      <point x="421" y="342" type="line"/>
      <point x="671" y="680" type="line"/>
      <point x="526" y="680" type="line"/>
      <point x="362" y="441" type="line"/>
      <point x="313" y="680" type="line" name="hr00"/>
      <point x="167" y="680" type="line"/>
      <point x="257" y="343" type="line"/>
    </contour>
  </outline>
</glyph>
<glyph name="backslash" format="2">
  <advance width="484"/>
  <unicode hex="005C"/>
  <outline>
    <contour>
      <point x="319" y="0" type="line" name="hr00"/>
      <point x="458" y="0" type="line"/>
      <point x="326" y="702" type="line"/>
      <point x="186" y="702" type="line"/>
    </contour>
  </outline>
</glyph>
<glyph name="bracketright" format="2">
  <advance width="245"/>
  <unicode hex="005D"/>
  <outline>
    <contour>
      <point x="405" y="747" type="line"/>
      <point x="179" y="747" type="line"/>
      <point x="151" y="633" type="line"/>
      <point x="239" y="633" type="line"/>
      <point x="90" y="-8" type="line"/>
      <point x="2" y="-8" type="line"/>
      <point x="-26" y="-122" type="line"/>
      <point x="203" y="-122" type="line"/>
    </contour>
  </outline>
</glyph>
<glyph name="grave" format="2">
  <advance width="518"/>
  <unicode hex="0060"/>
  <outline>
    <contour>
      <point x="473" y="583" type="line"/>
      <point x="529" y="682" type="line"/>
      <point x="308" y="772" type="line"/>
      <point x="244" y="662" type="line"/>
    </contour>
  </outline>
</glyph>
<glyph name="b" format="2">
  <advance width="527"/>
  <unicode hex="0062"/>
  <outline>
    <contour>
      <point x="302" y="-11" type="curve" smooth="yes"/>
      <point x="466" y="-11"/>
      <point x="562" y="145"/>
      <point x="562" y="349" type="curve" smooth="yes"/>
      <point x="562" y="430"/>
      <point x="529" y="512"/>
      <point x="412" y="512" type="curve" smooth="yes" name="hr00"/>
      <point x="368" y="512"/>
      <point x="318" y="483"/>
      <point x="293" y="461" type="curve"/>
      <point x="348" y="700" type="line"/>
      <point x="214" y="700" type="line"/>
      <point x="58" y="22" type="line"/>
      <point x="116" y="8"/>
      <point x="223" y="-11"/>
    </contour>
    <contour>
      <point x="300" y="103" type="curve" smooth="yes"/>
      <point x="269" y="103"/>
      <point x="232" y="109"/>
      <point x="213" y="113" type="curve"/>
      <point x="267" y="348" type="line"/>
      <point x="293" y="370"/>
      <point x="340" y="398"/>
      <point x="372" y="398" type="curve" smooth="yes"/>
      <point x="417" y="398"/>
      <point x="425" y="364"/>
      <point x="425" y="335" type="curve" smooth="yes"/>
      <point x="425" y="259"/>
      <point x="392" y="103"/>
    </contour>
  </outline>
</glyph>
<glyph name="e" format="2">
  <advance width="476"/>
  <unicode hex="0065"/>
  <outline>
    <contour>
      <point x="250" y="-12" type="curve" smooth="yes"/>
      <point x="320" y="-12"/>
      <point x="399" y="4"/>
      <point x="439" y="16" type="curve"/>
      <point x="454" y="115" type="line"/>
      <point x="412" y="109"/>
      <point x="338" y="102"/>
      <point x="288" y="102" type="curve" smooth="yes" name="hr00"/>
      <point x="248" y="102"/>
      <point x="215" y="121"/>
      <point x="215" y="161" type="curve" smooth="yes"/>
      <point x="215" y="173"/>
      <point x="216" y="187"/>
      <point x="218" y="195" type="curve"/>
      <point x="253" y="195" type="line"/>
      <point x="444" y="195"/>
      <point x="530" y="231"/>
      <point x="530" y="362" type="curve" smooth="yes"/>
      <point x="530" y="469"/>
      <point x="462" y="511"/>
      <point x="355" y="511" type="curve" smooth="yes"/>
      <point x="160" y="511"/>
      <point x="81" y="339"/>
      <point x="81" y="158" type="curve" smooth="yes"/>
      <point x="81" y="41"/>
      <point x="135" y="-12"/>
    </contour>
    <contour>
      <point x="233" y="294" type="line"/>
      <point x="250" y="366"/>
      <point x="289" y="403"/>
      <point x="348" y="403" type="curve" smooth="yes"/>
      <point x="380" y="403"/>
      <point x="398" y="392"/>
      <point x="398" y="360" type="curve" smooth="yes"/>
      <point x="398" y="313"/>
      <point x="368" y="294"/>
      <point x="274" y="294" type="curve" smooth="yes"/>
    </contour>
  </outline>
</glyph>
<glyph name="j" format="2">
  <advance width="243"/>
  <unicode hex="006A"/>
  <outline>
    <contour>
      <point x="-28" y="-230" type="line"/>
      <point x="147" y="-153"/>
      <point x="157.247" y="-138.057"/>
      <point x="189" y="0" type="curve" smooth="yes"/>
      <point x="304" y="500" type="line"/>
      <point x="170" y="500" type="line"/>
      <point x="55" y="0" type="line" smooth="yes" name="hr00"/>
      <point x="40.972" y="-60.993"/>
      <point x="34" y="-69"/>
      <point x="-70" y="-123" type="curve"/>
    </contour>
    <contour>
      <point x="179" y="543" type="line"/>
      <point x="315" y="543" type="line"/>
      <point x="346" y="680" type="line"/>
      <point x="211" y="680" type="line"/>
    </contour>
  </outline>
</glyph>
<glyph name="l" format="2">
  <advance width="244"/>
  <unicode hex="006C"/>
  <outline>
    <contour>
      <point x="55" y="0" type="line" name="hr00"/>
      <point x="189" y="0" type="line"/>
      <point x="350" y="700" type="line"/>
      <point x="216" y="700" type="line"/>
    </contour>
  </outline>
</glyph>
<glyph name="o" format="2">
  <advance width="496"/>
  <unicode hex="006F"/>
  <outline>
    <contour>
      <point x="277" y="-12" type="curve" smooth="yes"/>
      <point x="445" y="-12"/>
      <point x="530" y="168"/>
      <point x="530" y="322" type="curve" smooth="yes"/>
      <point x="530" y="456"/>
      <point x="457" y="511"/>
      <point x="333" y="511" type="curve" smooth="yes" name="hr00"/>
      <point x="173" y="511"/>
      <point x="80" y="331"/>
      <point x="80" y="177" type="curve" smooth="yes"/>
      <point x="80" y="43"/>
      <point x="153" y="-12"/>
    </contour>
    <contour>
      <point x="277" y="102" type="curve" smooth="yes"/>
      <point x="235" y="102"/>
      <point x="213" y="129"/>
      <point x="213" y="175" type="curve" smooth="yes"/>
      <point x="213" y="279"/>
      <point x="257" y="397"/>
      <point x="333" y="397" type="curve" smooth="yes"/>
      <point x="375" y="397"/>
      <point x="397" y="370"/>
      <point x="397" y="324" type="curve" smooth="yes"/>
      <point x="397" y="220"/>
      <point x="353" y="102"/>
    </contour>
  </outline>
</glyph>
<glyph name="p" format="2">
  <advance width="527"/>
  <unicode hex="0070"/>
  <outline>
    <contour>
      <point x="7" y="-210" type="line" name="hr00"/>
      <point x="139" y="-210" type="line"/>
      <point x="190" y="10" type="line"/>
      <point x="222" y="1"/>
      <point x="277" y="-11"/>
      <point x="311" y="-11" type="curve" smooth="yes"/>
      <point x="477" y="-11"/>
      <point x="563" y="173"/>
      <point x="563" y="342" type="curve" smooth="yes"/>
      <point x="563" y="439"/>
      <point x="519" y="512"/>
      <point x="418" y="512" type="curve" smooth="yes"/>
      <point x="370" y="512"/>
      <point x="317" y="476"/>
      <point x="291" y="448" type="curve"/>
      <point x="301" y="500" type="line"/>
      <point x="170" y="500" type="line"/>
    </contour>
    <contour>
      <point x="311" y="103" type="curve" smooth="yes"/>
      <point x="283" y="103"/>
      <point x="240" y="111"/>
      <point x="215" y="117" type="curve"/>
      <point x="263" y="326" type="line"/>
      <point x="296" y="357"/>
      <point x="349" y="398"/>
      <point x="376" y="398" type="curve" smooth="yes"/>
      <point x="412" y="398"/>
      <point x="427" y="370"/>
      <point x="427" y="334" type="curve" smooth="yes"/>
      <point x="427" y="243"/>
      <point x="386" y="103"/>
    </contour>
  </outline>
</glyph>
<glyph name="r" format="2">
  <advance width="334"/>
  <unicode hex="0072"/>
  <outline>
    <contour>
      <point x="55" y="0" type="line" name="hr00"/>
      <point x="189" y="0" type="line"/>
      <point x="262" y="315" type="line"/>
      <point x="302" y="333"/>
      <point x="367" y="361"/>
      <point x="403" y="372" type="curve"/>
      <point x="442" y="512" type="line"/>
      <point x="387" y="505"/>
      <point x="320" y="460"/>
      <point x="285" y="428" type="curve"/>
      <point x="303" y="500" type="line"/>
      <point x="170" y="500" type="line"/>
    </contour>
  </outline>
</glyph>
<glyph name="s" format="2">
  <advance width="432"/>
  <unicode hex="0073"/>
  <outline>
    <contour>
      <point x="219" y="-12" type="curve" smooth="yes"/>
      <point x="349" y="-12"/>
      <point x="444" y="48"/>
      <point x="444" y="178" type="curve" smooth="yes"/>
      <point x="444" y="255"/>
      <point x="396.027" y="274.085"/>
      <point x="311" y="301" type="curve" smooth="yes"/>
      <point x="257.027" y="318.085"/>
      <point x="240" y="326"/>
      <point x="240" y="348" type="curve" smooth="yes"/>
      <point x="240" y="375"/>
      <point x="261" y="397"/>
      <point x="302" y="397" type="curve" smooth="yes"/>
      <point x="349" y="397"/>
      <point x="426" y="388"/>
      <point x="470" y="381" type="curve"/>
      <point x="494" y="480" type="line" name="hr00"/>
      <point x="462" y="493"/>
      <point x="391" y="511"/>
      <point x="314" y="511" type="curve" smooth="yes"/>
      <point x="206" y="511"/>
      <point x="106" y="443"/>
      <point x="106" y="313" type="curve" smooth="yes"/>
      <point x="106" y="241"/>
      <point x="160.025" y="213.087"/>
      <point x="245" y="189" type="curve" smooth="yes"/>
      <point x="287.025" y="177.087"/>
      <point x="307" y="169"/>
      <point x="307" y="151" type="curve" smooth="yes"/>
      <point x="307" y="123"/>
      <point x="289" y="102"/>
      <point x="234" y="102" type="curve"/>
      <point x="185" y="102"/>
      <point x="112" y="112"/>
      <point x="71" y="120" type="curve"/>
      <point x="46" y="22" type="line"/>
      <point x="79" y="7"/>
      <point x="148" y="-12"/>
    </contour>
  </outline>
</glyph>
<glyph name="v" format="2">
  <advance width="463"/>
  <unicode hex="0076"/>
  <outline>
    <contour>
      <point x="122" y="0" type="line"/>
      <point x="332" y="0" type="line"/>
      <point x="567" y="500" type="line"/>
      <point x="432" y="500" type="line"/>
      <point x="261" y="111" type="line"/>
      <point x="243" y="111" type="line"/>
      <point x="257" y="500" type="line"/>
      <point x="126" y="500" type="line" name="hr00"/>
    </contour>
  </outline>
</glyph>
<glyph name="x" format="2">
  <advance width="430"/>
  <unicode hex="0078"/>
  <outline>
    <contour>
      <point x="6" y="0" type="line"/>
      <point x="145" y="0" type="line"/>
      <point x="247" y="147" type="line"/>
      <point x="286" y="0" type="line"/>
      <point x="422" y="0" type="line"/>
      <point x="342" y="240" type="line"/>
      <point x="539" y="500" type="line"/>
      <point x="403" y="500" type="line"/>
      <point x="299" y="347" type="line"/>
      <point x="260" y="500" type="line"/>
      <point x="124" y="500" type="line"/>
      <point x="202" y="250" type="line"/>
    </contour>
  </outline>
</glyph>
<glyph name="y" format="2">
  <advance width="464"/>
  <unicode hex="0079"/>
  <outline>
    <contour>
      <point x="102" y="-210" type="line"/>
      <point x="235" y="-210" type="line"/>
      <point x="567" y="500" type="line"/>
      <point x="432" y="500" type="line"/>
      <point x="258" y="111" type="line"/>
      <point x="243" y="111" type="line"/>
      <point x="257" y="500" type="line"/>
      <point x="126" y="500" type="line" name="hr00"/>
      <point x="122" y="0" type="line"/>
      <point x="205" y="0" type="line"/>
    </contour>
  </outline>
</glyph>
<glyph name="braceleft" format="2">
  <advance width="288"/>
  <unicode hex="007B"/>
  <outline>
    <contour>
      <point x="247" y="-133" type="curve"/>
      <point x="278" y="-18" type="line"/>
      <point x="240" y="-18"/>
      <point x="220" y="0"/>
      <point x="220" y="30" type="curve" smooth="yes"/>
      <point x="220" y="66"/>
      <point x="265" y="181"/>
      <point x="265" y="219" type="curve" smooth="yes" name="hr00"/>
      <point x="265" y="267"/>
      <point x="245" y="290"/>
      <point x="204" y="313" type="curve"/>
      <point x="272" y="337"/>
      <point x="304" y="368"/>
      <point x="323" y="446" type="curve"/>
      <point x="331" y="488"/>
      <point x="339" y="530"/>
      <point x="347" y="572" type="curve"/>
      <point x="357" y="611"/>
      <point x="378" y="639"/>
      <point x="436" y="644" type="curve"/>
      <point x="458" y="759" type="line"/>
      <point x="325" y="754"/>
      <point x="259" y="717"/>
      <point x="225" y="603" type="curve"/>
      <point x="216" y="551"/>
      <point x="201" y="475"/>
      <point x="196" y="457" type="curve" smooth="yes"/>
      <point x="185" y="415"/>
      <point x="175" y="393"/>
      <point x="87" y="370" type="curve"/>
      <point x="63" y="275" type="line"/>
      <point x="114" y="248"/>
      <point x="130" y="220"/>
      <point x="130" y="190" type="curve" smooth="yes"/>
      <point x="130" y="150"/>
      <point x="88" y="33"/>
      <point x="88" y="-8" type="curve" smooth="yes"/>
      <point x="88" y="-88"/>
      <point x="151" y="-133"/>
    </contour>
  </outline>
</glyph>
<glyph name="cent" format="2">
  <advance width="560"/>
  <unicode hex="00A2"/>
  <outline>
    <contour>
      <point x="251" y="-74" type="line" name="hr00"/>
      <point x="357" y="-74" type="line"/>
      <point x="382" y="36" type="line"/>
      <point x="410" y="38"/>
      <point x="441" y="42"/>
      <point x="457" y="45" type="curve"/>
      <point x="478" y="157" type="line"/>
      <point x="447" y="155"/>
      <point x="396" y="153"/>
      <point x="370" y="153" type="curve" smooth="yes"/>
      <point x="282" y="153"/>
      <point x="267" y="183"/>
      <point x="283" y="250" type="curve" smooth="yes"/>
      <point x="301" y="320"/>
      <point x="333" y="346"/>
      <point x="413" y="346" type="curve" smooth="yes"/>
      <point x="439" y="346"/>
      <point x="489" y="344"/>
      <point x="520" y="343" type="curve"/>
      <point x="554" y="455" type="line"/>
      <point x="540" y="458"/>
      <point x="511" y="462"/>
      <point x="484" y="465" type="curve"/>
      <point x="510" y="570" type="line"/>
      <point x="402" y="570" type="line"/>
      <point x="379" y="468" type="line"/>
      <point x="273" y="461"/>
      <point x="190" y="391"/>
      <point x="155" y="250" type="curve" smooth="yes"/>
      <point x="131" y="149"/>
      <point x="151" y="37"/>
      <point x="274" y="29" type="curve"/>
    </contour>
  </outline>
</glyph>
<glyph name="sterling" format="2">
  <advance width="560"/>
  <unicode hex="00A3"/>
  <outline>
    <contour>
      <point x="75" y="0" type="line"/>
      <point x="415" y="0" type="line"/>
      <point x="489" y="17" type="line"/>
      <point x="492" y="132" type="line"/>
      <point x="424" y="114" type="line"/>
      <point x="332" y="114" type="line"/>
      <point x="382" y="329" type="line"/>
      <point x="538" y="329" type="line"/>
      <point x="565" y="443" type="line"/>
      <point x="408" y="443" type="line"/>
      <point x="413" y="463" type="line" smooth="yes"/>
      <point x="428" y="523"/>
      <point x="439" y="561"/>
      <point x="490" y="561" type="curve" smooth="yes"/>
      <point x="519" y="561"/>
      <point x="566" y="556"/>
      <point x="593" y="553" type="curve"/>
      <point x="624" y="654" type="line"/>
      <point x="584" y="665"/>
      <point x="518" y="679"/>
      <point x="481" y="679" type="curve" smooth="yes"/>
      <point x="364" y="679"/>
      <point x="316" y="623"/>
      <point x="280" y="479" type="curve"/>
      <point x="271" y="443" type="line"/>
      <point x="192" y="443" type="line"/>
      <point x="165" y="329" type="line"/>
      <point x="245" y="329" type="line"/>
      <point x="196" y="114" type="line"/>
      <point x="101" y="114" type="line"/>
    </contour>
  </outline>
</glyph>
<glyph name="currency" format="2">
  <advance width="560"/>
  <unicode hex="00A4"/>
  <outline>
    <contour>
      <point x="200" y="113" type="curve" smooth="yes"/>
      <point x="277" y="37"/>
      <point x="401" y="37"/>
      <point x="478" y="113" type="curve" smooth="yes"/>
      <point x="554" y="190"/>
      <point x="554" y="314"/>
      <point x="478" y="391" type="curve" smooth="yes"/>
      <point x="401" y="467"/>
      <point x="277" y="467"/>
      <point x="200" y="391" type="curve" smooth="yes"/>
      <point x="124" y="314"/>
      <point x="124" y="190"/>
    </contour>
    <contour>
      <point x="181" y="2" type="line"/>
      <point x="290" y="111" type="line"/>
      <point x="198" y="203" type="line"/>
      <point x="89" y="94" type="line"/>
    </contour>
    <contour>
      <point x="286" y="199" type="curve" smooth="yes"/>
      <point x="257" y="228"/>
      <point x="257" y="276"/>
      <point x="286" y="305" type="curve" smooth="yes"/>
      <point x="315" y="334"/>
      <point x="363" y="334"/>
      <point x="392" y="305" type="curve" smooth="yes"/>
      <point x="421" y="276"/>
      <point x="421" y="228"/>
      <point x="392" y="199" type="curve" smooth="yes"/>
      <point x="363" y="170"/>
      <point x="315" y="170"/>
    </contour>
    <contour>
      <point x="198" y="301" type="line"/>
      <point x="290" y="393" type="line"/>
      <point x="181" y="502" type="line"/>
      <point x="89" y="410" type="line"/>
    </contour>
    <contour>
      <point x="497" y="2" type="line"/>
      <point x="589" y="94" type="line"/>
      <point x="480" y="203" type="line"/>
      <point x="388" y="111" type="line"/>
    </contour>
    <contour>
      <point x="480" y="301" type="line"/>
      <point x="589" y="410" type="line"/>
      <point x="497" y="502" type="line"/>
      <point x="388" y="393" type="line"/>
    </contour>
  </outline>
</glyph>
<glyph name="yen" format="2">
  <advance width="560"/>
  <unicode hex="00A5"/>
  <outline>
    <contour>
      <point x="219" y="0" type="line"/>
      <point x="356" y="0" type="line"/>
      <point x="385" y="125" type="line"/>
      <point x="525" y="125" type="line"/>
      <point x="552" y="243" type="line"/>
      <point x="412" y="243" type="line"/>
      <point x="418" y="265" type="line"/>
      <point x="427" y="276" type="line"/>
      <point x="559" y="276" type="line"/>
      <point x="587" y="394" type="line"/>
      <point x="516" y="394" type="line"/>
      <point x="730" y="660" type="line"/>
      <point x="552" y="660" type="line"/>
      <point x="374" y="429" type="line"/>
      <point x="276" y="660" type="line"/>
      <point x="127" y="660" type="line"/>
      <point x="235" y="394" type="line"/>
      <point x="165" y="394" type="line"/>
      <point x="139" y="276" type="line" name="hr00"/>
      <point x="278" y="276" type="line"/>
      <point x="281" y="265" type="line"/>
      <point x="276" y="243" type="line"/>
      <point x="131" y="243" type="line"/>
      <point x="103" y="125" type="line"/>
      <point x="249" y="125" type="line"/>
    </contour>
  </outline>
</glyph>
<glyph name="brokenbar" format="2">
  <advance width="335"/>
  <unicode hex="00A6"/>
  <outline>
    <contour>
      <point x="157" y="328" type="line"/>
      <point x="291" y="328" type="line"/>
      <point x="291" y="700" type="line"/>
      <point x="157" y="700" type="line" name="hr00"/>
    </contour>
    <contour>
      <point x="157" y="-210" type="line"/>
      <point x="291" y="-210" type="line"/>
      <point x="291" y="170" type="line"/>
      <point x="157" y="170" type="line"/>
    </contour>
  </outline>
</glyph>
<glyph name="copyright" format="2">
  <advance width="641"/>
  <unicode hex="00A9"/>
  <outline>
    <contour>
      <point x="419" y="150" type="curve" smooth="yes"/>
      <point x="589" y="150"/>
      <point x="696" y="273"/>
      <point x="696" y="434" type="curve" smooth="yes"/>
      <point x="696" y="588"/>
      <point x="589" y="718"/>
      <point x="421" y="718" type="curve" smooth="yes"/>
      <point x="261" y="718"/>
      <point x="145" y="598"/>
      <point x="145" y="434" type="curve" smooth="yes" name="hr00"/>
      <point x="145" y="274"/>
      <point x="262" y="150"/>
    </contour>
    <contour>
      <point x="429" y="269" type="curve" smooth="yes"/>
      <point x="470" y="269"/>
      <point x="501" y="279"/>
      <point x="513" y="287" type="curve"/>
      <point x="506" y="369" type="line"/>
      <point x="491" y="367"/>
      <point x="462" y="364"/>
      <point x="439" y="364" type="curve" smooth="yes"/>
      <point x="414" y="364"/>
      <point x="404" y="386"/>
      <point x="404" y="439" type="curve" smooth="yes"/>
      <point x="404" y="488"/>
      <point x="413" y="503"/>
      <point x="439" y="503" type="curve" smooth="yes"/>
      <point x="462" y="503"/>
      <point x="491" y="500"/>
      <point x="506" y="497" type="curve"/>
      <point x="513" y="583" type="line"/>
      <point x="499" y="589"/>
      <point x="468" y="598"/>
      <point x="433" y="598" type="curve" smooth="yes"/>
      <point x="341" y="598"/>
      <point x="301" y="561"/>
      <point x="301" y="439" type="curve" smooth="yes"/>
      <point x="301" y="303"/>
      <point x="341" y="269"/>
    </contour>
    <contour>
      <point x="419" y="210" type="curve" smooth="yes"/>
      <point x="297" y="210"/>
      <point x="207" y="312"/>
      <point x="207" y="434" type="curve" smooth="yes"/>
      <point x="207" y="556"/>
      <point x="298" y="658"/>
      <point x="420" y="658" type="curve" smooth="yes"/>
      <point x="542" y="658"/>
      <point x="634" y="556"/>
      <point x="634" y="434" type="curve" smooth="yes"/>
      <point x="634" y="311"/>
      <point x="544" y="210"/>
    </contour>
  </outline>
</glyph>
<glyph name="logicalnot" format="2">
  <advance width="560"/>
  <unicode hex="00AC"/>
  <outline>
    <contour>
      <point x="429" y="104" type="line"/>
      <point x="549" y="104" type="line"/>
      <point x="549" y="358" type="line"/>
      <point x="113" y="358" type="line" name="hr00"/>
      <point x="113" y="238" type="line"/>
      <point x="429" y="238" type="line"/>
    </contour>
  </outline>
</glyph>
<glyph name="macron" format="2">
  <advance width="462"/>
  <unicode hex="00AF"/>
  <outline>
    <contour>
      <point x="217" y="627" type="line" name="hr00"/>
      <point x="525" y="627" type="line"/>
      <point x="551" y="736" type="line"/>
      <point x="242" y="736" type="line"/>
    </contour>
  </outline>
</glyph>
<glyph name="threesuperior" format="2">
  <advance width="280"/>
  <unicode hex="00B3"/>
  <outline>
    <contour>
      <point x="247" y="467" type="curve" smooth="yes"/>
      <point x="320" y="467"/>
      <point x="372.765" y="500.058"/>
      <point x="390" y="569" type="curve" smooth="yes"/>
      <point x="400.765" y="612.059"/>
      <point x="394" y="632"/>
      <point x="374" y="642" type="curve"/>
      <point x="395" y="653"/>
      <point x="412" y="678"/>
      <point x="420" y="712" type="curve" smooth="yes"/>
      <point x="433" y="764"/>
      <point x="404" y="792"/>
      <point x="326" y="794" type="curve" smooth="yes"/>
      <point x="279" y="795"/>
      <point x="240" y="788"/>
      <point x="201" y="777" type="curve"/>
      <point x="194" y="701" type="line"/>
      <point x="215" y="703"/>
      <point x="253" y="706"/>
      <point x="280" y="706" type="curve" smooth="yes"/>
      <point x="296" y="706"/>
      <point x="306" y="703"/>
      <point x="303" y="691" type="curve" smooth="yes"/>
      <point x="300" y="681"/>
      <point x="292" y="677"/>
      <point x="279" y="677" type="curve" smooth="yes"/>
      <point x="215" y="677" type="line"/>
      <point x="194" y="592" type="line"/>
      <point x="260" y="592" type="line"/>
      <point x="278" y="592"/>
      <point x="286" y="590"/>
      <point x="283" y="578" type="curve" smooth="yes"/>
      <point x="280" y="566"/>
      <point x="271" y="562"/>
      <point x="250" y="562" type="curve" smooth="yes"/>
      <point x="226" y="562"/>
      <point x="183" y="565"/>
      <point x="157" y="568" type="curve"/>
      <point x="128" y="475" type="line"/>
      <point x="158" y="472"/>
      <point x="211" y="467"/>
    </contour>
  </outline>
</glyph>
<glyph name="onesuperior" format="2">
  <advance width="280"/>
  <unicode hex="00B9"/>
  <outline>
    <contour>
      <point x="226" y="478" type="line"/>
      <point x="332" y="478" type="line"/>
      <point x="409" y="790" type="line"/>
      <point x="313" y="790" type="line"/>
      <point x="189" y="715" type="line" name="hr00"/>
      <point x="219" y="641" type="line"/>
      <point x="274" y="673" type="line"/>
    </contour>
  </outline>
</glyph>
<glyph name="ordmasculine" format="2">
  <advance width="343"/>
  <unicode hex="00BA"/>
  <outline>
    <contour>
      <point x="239" y="314" type="curve" smooth="yes"/>
      <point x="358" y="314"/>
      <point x="421" y="357"/>
      <point x="454" y="494" type="curve" smooth="yes"/>
      <point x="461" y="523"/>
      <point x="465" y="557"/>
      <point x="457" y="591" type="curve" smooth="yes"/>
      <point x="445" y="641"/>
      <point x="377" y="660"/>
      <point x="321" y="660" type="curve" smooth="yes"/>
      <point x="213" y="660"/>
      <point x="147" y="617"/>
      <point x="117" y="495" type="curve" smooth="yes"/>
      <point x="112" y="475"/>
      <point x="109" y="457"/>
      <point x="108" y="440" type="curve" smooth="yes"/>
      <point x="103" y="362"/>
      <point x="153" y="314"/>
    </contour>
    <contour>
      <point x="263" y="410" type="curve" smooth="yes"/>
      <point x="233" y="410"/>
      <point x="224" y="422"/>
      <point x="224" y="449" type="curve" smooth="yes"/>
      <point x="224" y="464"/>
      <point x="227" y="479"/>
      <point x="232" y="498" type="curve" smooth="yes"/>
      <point x="245" y="550"/>
      <point x="264" y="568"/>
      <point x="301" y="568" type="curve" smooth="yes"/>
      <point x="330" y="568"/>
      <point x="344" y="556"/>
      <point x="344" y="528" type="curve" smooth="yes"/>
      <point x="344" y="515"/>
      <point x="342" y="504"/>
      <point x="339" y="492" type="curve" smooth="yes"/>
      <point x="321" y="428"/>
      <point x="301" y="410"/>
    </contour>
  </outline>
</glyph>
<glyph name="AE" format="2">
  <advance width="754"/>
  <unicode hex="00C6"/>
  <outline>
    <contour>
      <point x="14" y="0" type="line"/>
      <point x="145" y="0" type="line"/>
      <point x="198" y="119" type="line"/>
      <point x="341" y="119" type="line"/>
      <point x="313" y="0" type="line" name="hr00"/>
      <point x="719" y="0" type="line"/>
      <point x="748" y="130" type="line"/>
      <point x="472" y="130" type="line"/>
      <point x="507" y="277" type="line"/>
      <point x="728" y="277" type="line"/>
      <point x="757" y="402" type="line"/>
      <point x="537" y="402" type="line"/>
      <point x="575" y="561" type="line"/>
      <point x="851" y="559" type="line"/>
      <point x="881" y="690" type="line"/>
      <point x="322" y="690" type="line"/>
    </contour>
    <contour>
      <point x="256" y="247" type="line"/>
      <point x="393" y="560" type="line"/>
      <point x="445" y="560" type="line"/>
      <point x="372" y="247" type="line"/>
    </contour>
  </outline>
</glyph>
<glyph name="multiply" format="2">
  <advance width="560"/>
  <unicode hex="00D7"/>
  <outline>
    <contour>
      <point x="477" y="26" type="line"/>
      <point x="562" y="111" type="line"/>
      <point x="419" y="250" type="line"/>
      <point x="562" y="390" type="line"/>
      <point x="478" y="475" type="line"/>
      <point x="338" y="332" type="line"/>
      <point x="200" y="473" type="line" name="hr00"/>
      <point x="115" y="388" type="line"/>
      <point x="256" y="250" type="line"/>
      <point x="114" y="111" type="line"/>
      <point x="199" y="27" type="line"/>
      <point x="338" y="168" type="line"/>
    </contour>
  </outline>
</glyph>
<glyph name="Udieresis" format="2">
  <advance width="595"/>
  <unicode hex="00DC"/>
  <outline>
    <contour>
      <point x="509" y="781" type="line"/>
      <point x="629" y="781" type="line"/>
      <point x="661" y="916" type="line"/>
      <point x="540" y="916" type="line"/>
    </contour>
    <contour>
      <point x="305" y="781" type="line"/>
      <point x="425" y="781" type="line"/>
      <point x="457" y="916" type="line"/>
      <point x="336" y="916" type="line"/>
    </contour>
    <component base="U"/>
  </outline>
</glyph>
<glyph name="Thorn" format="2">
  <advance width="538"/>
  <unicode hex="00DE"/>
  <outline>
    <contour>
      <point x="63" y="0" type="line"/>
      <point x="193" y="0" type="line"/>
      <point x="216" y="100" type="line"/>
      <point x="312" y="99" type="line" smooth="yes"/>
      <point x="458" y="97"/>
      <point x="565" y="193"/>
      <point x="599" y="348" type="curve" smooth="yes"/>
      <point x="628" y="483"/>
      <point x="564" y="593"/>
      <point x="428" y="593" type="curve" smooth="yes"/>
      <point x="332" y="593" type="line"/>
      <point x="357" y="690" type="line"/>
      <point x="226" y="690" type="line"/>
    </contour>
    <contour>
      <point x="248" y="236" type="line"/>
      <point x="301" y="459" type="line"/>
      <point x="397" y="457" type="line"/>
      <point x="466" y="455"/>
      <point x="481" y="404"/>
      <point x="467" y="348" type="curve" smooth="yes"/>
      <point x="449" y="277"/>
      <point x="408" y="236"/>
      <point x="343" y="236" type="curve" name="hr00"/>
    </contour>
  </outline>
</glyph>
<glyph name="germandbls" format="2">
  <advance width="564"/>
  <unicode hex="00DF"/>
  <outline>
    <contour>
      <point x="377" y="-12" type="curve" smooth="yes"/>
      <point x="505" y="-12"/>
      <point x="583" y="62"/>
      <point x="583" y="180" type="curve" smooth="yes"/>
      <point x="583" y="247"/>
      <point x="558" y="264"/>
      <point x="507" y="297" type="curve" smooth="yes"/>
      <point x="453" y="332"/>
      <point x="441" y="341"/>
      <point x="441" y="362" type="curve" smooth="yes"/>
      <point x="441" y="389"/>
      <point x="465" y="401"/>
      <point x="531" y="427" type="curve" smooth="yes"/>
      <point x="603" y="455"/>
      <point x="622" y="502"/>
      <point x="622" y="567" type="curve" smooth="yes"/>
      <point x="622" y="659"/>
      <point x="554" y="712"/>
      <point x="424" y="712" type="curve" smooth="yes"/>
      <point x="288" y="712"/>
      <point x="213" y="670"/>
      <point x="177" y="520" type="curve"/>
      <point x="54" y="0" type="line" name="hr00"/>
      <point x="180" y="0" type="line"/>
      <point x="298" y="502" type="line" smooth="yes"/>
      <point x="314" y="571"/>
      <point x="347" y="598"/>
      <point x="410" y="598" type="curve" smooth="yes"/>
      <point x="462" y="598"/>
      <point x="486" y="579"/>
      <point x="486" y="553" type="curve" smooth="yes"/>
      <point x="486" y="525"/>
      <point x="475" y="516"/>
      <point x="411" y="486" type="curve" smooth="yes"/>
      <point x="344" y="455"/>
      <point x="305" y="419"/>
      <point x="305" y="337" type="curve" smooth="yes"/>
      <point x="305" y="285"/>
      <point x="325" y="260"/>
      <point x="387" y="223" type="curve" smooth="yes"/>
      <point x="439" y="192"/>
      <point x="447" y="185"/>
      <point x="447" y="161" type="curve" smooth="yes"/>
      <point x="447" y="132"/>
      <point x="423" y="102"/>
      <point x="361" y="102" type="curve" smooth="yes"/>
      <point x="327" y="102"/>
      <point x="275" y="109"/>
      <point x="245" y="114" type="curve"/>
      <point x="216" y="16" type="line"/>
      <point x="253" y="4"/>
      <point x="323" y="-12"/>
    </contour>
  </outline>
</glyph>
<glyph name="ecircumflex" format="2">
  <advance width="476"/>
  <unicode hex="00EA"/>
  <outline>
    <contour>
      <point x="185" y="575" type="line"/>
      <point x="325" y="575" type="line"/>
      <point x="383" y="639" type="line"/>
      <point x="407" y="575" type="line"/>
      <point x="539" y="575" type="line"/>
      <point x="453" y="750" type="line"/>
      <point x="353" y="750" type="line"/>
    </contour>
    <component base="e"/>
  </outline>
</glyph>
<glyph name="edieresis" format="2">
  <advance width="476"/>
  <unicode hex="00EB"/>
  <outline>
    <contour>
      <point x="415" y="601" type="line"/>
      <point x="535" y="601" type="line"/>
      <point x="567" y="736" type="line"/>
      <point x="446" y="736" type="line"/>
    </contour>
    <contour>
      <point x="211" y="601" type="line"/>
      <point x="331" y="601" type="line"/>
      <point x="363" y="736" type="line"/>
      <point x="242" y="736" type="line"/>
    </contour>
    <component base="e"/>
  </outline>
</glyph>
<glyph name="icircumflex" format="2">
  <advance width="243"/>
  <unicode hex="00EE"/>
  <outline>
    <contour>
      <point x="69" y="575" type="line"/>
      <point x="209" y="575" type="line"/>
      <point x="267" y="639" type="line"/>
      <point x="291" y="575" type="line"/>
      <point x="423" y="575" type="line"/>
      <point x="337" y="750" type="line"/>
      <point x="237" y="750" type="line"/>
    </contour>
    <component base="dotlessi"/>
  </outline>
</glyph>
<glyph name="eth" format="2">
  <advance width="527"/>
  <unicode hex="00F0"/>
  <outline>
    <contour>
      <point x="249" y="-9" type="curve" smooth="yes"/>
      <point x="433" y="-9"/>
      <point x="516" y="112"/>
      <point x="575" y="353" type="curve" smooth="yes"/>
      <point x="629" y="570"/>
      <point x="519" y="687"/>
      <point x="253" y="698" type="curve" name="hr00"/>
      <point x="209" y="582" type="line"/>
      <point x="306" y="568"/>
      <point x="478" y="556"/>
      <point x="453" y="416" type="curve"/>
      <point x="432" y="425"/>
      <point x="386" y="438"/>
      <point x="339" y="438" type="curve" smooth="yes"/>
      <point x="206" y="438"/>
      <point x="114" y="345"/>
      <point x="81" y="221" type="curve" smooth="yes"/>
      <point x="49" y="102"/>
      <point x="105" y="-9"/>
    </contour>
    <contour>
      <point x="279" y="118" type="curve" smooth="yes"/>
      <point x="208" y="118"/>
      <point x="201" y="160"/>
      <point x="218" y="222" type="curve" smooth="yes"/>
      <point x="233" y="277"/>
      <point x="271" y="318"/>
      <point x="320" y="318" type="curve" smooth="yes"/>
      <point x="385" y="318"/>
      <point x="425" y="297"/>
      <point x="427" y="296" type="curve"/>
      <point x="396" y="173"/>
      <point x="346" y="118"/>
    </contour>
    <contour>
      <point x="274" y="470" type="line"/>
      <point x="558" y="667" type="line"/>
      <point x="515" y="739" type="line"/>
      <point x="228" y="542" type="line"/>
    </contour>
  </outline>
</glyph>
<glyph name="ocircumflex" format="2">
  <advance width="496"/>
  <unicode hex="00F4"/>
  <outline>
    <contour>
      <point x="200" y="575" type="line"/>
      <point x="340" y="575" type="line"/>
      <point x="398" y="639" type="line"/>
      <point x="422" y="575" type="line"/>
      <point x="554" y="575" type="line"/>
      <point x="468" y="750" type="line"/>
      <point x="368" y="750" type="line"/>
    </contour>
    <component base="o"/>
  </outline>
</glyph>
<glyph name="ucircumflex" format="2">
  <advance width="513"/>
  <unicode hex="00FB"/>
  <outline>
    <contour>
      <point x="197" y="575" type="line"/>
      <point x="337" y="575" type="line"/>
      <point x="395" y="639" type="line"/>
      <point x="419" y="575" type="line"/>
      <point x="551" y="575" type="line"/>
      <point x="465" y="750" type="line"/>
      <point x="365" y="750" type="line"/>
    </contour>
    <component base="u"/>
  </outline>
</glyph>
<glyph name="thorn" format="2">
  <advance width="495"/>
  <unicode hex="00FE"/>
  <outline>
    <contour>
      <point x="4" y="-208" type="line"/>
      <point x="130" y="-208" type="line"/>
      <point x="177" y="-7" type="line"/>
      <point x="177" y="-9"/>
      <point x="213" y="-12"/>
      <point x="248" y="-12" type="curve" smooth="yes"/>
      <point x="389" y="-12"/>
      <point x="467" y="50"/>
      <point x="523" y="255" type="curve" smooth="yes"/>
      <point x="553" y="364"/>
      <point x="549" y="511"/>
      <point x="394" y="511" type="curve" smooth="yes"/>
      <point x="343" y="511"/>
      <point x="294" y="470"/>
      <point x="291" y="469" type="curve"/>
      <point x="344" y="698" type="line"/>
      <point x="218" y="698" type="line"/>
    </contour>
    <contour>
      <point x="273" y="107" type="curve"/>
      <point x="206" y="113" type="line"/>
      <point x="262" y="350" type="line" name="hr00"/>
      <point x="262" y="348"/>
      <point x="317" y="388"/>
      <point x="349" y="388" type="curve" smooth="yes"/>
      <point x="416" y="388"/>
      <point x="407" y="305"/>
      <point x="394" y="255" type="curve" smooth="yes"/>
      <point x="371" y="166"/>
      <point x="335" y="107"/>
    </contour>
  </outline>
</glyph>
<glyph name="Dcroat" format="2">
  <advance width="613"/>
  <unicode hex="0110"/>
  <outline>
    <contour>
      <point x="82" y="275" type="line" name="hr00"/>
      <point x="384" y="275" type="line"/>
      <point x="414" y="411" type="line"/>
      <point x="111" y="411" type="line"/>
    </contour>
    <component base="D" xOffset="8"/>
  </outline>
</glyph>
<glyph name="dcroat" format="2">
  <advance width="528"/>
  <unicode hex="0111"/>
  <outline>
    <contour>
      <point x="345" y="547" type="line"/>
      <point x="653" y="547" type="line"/>
      <point x="681" y="666" type="line"/>
      <point x="372" y="666" type="line"/>
    </contour>
    <component base="d"/>
  </outline>
</glyph>
<glyph name="gcommaaccent" format="2">
  <advance width="484"/>
  <unicode hex="0123"/>
  <outline>
    <contour>
      <point x="286" y="578" type="line"/>
      <point x="409" y="578" type="line"/>
      <point x="507" y="814" type="line"/>
      <point x="393" y="814" type="line"/>
    </contour>
    <component base="g"/>
  </outline>
</glyph>
<glyph name="Hbar" format="2">
  <advance width="628"/>
  <unicode hex="0126"/>
  <outline>
    <contour>
      <point x="69" y="0" type="line"/>
      <point x="201" y="0" type="line"/>
      <point x="265" y="278" type="line"/>
      <point x="491" y="278" type="line"/>
      <point x="427" y="0" type="line" name="hr00"/>
      <point x="559" y="0" type="line"/>
      <point x="716" y="680" type="line"/>
      <point x="584" y="680" type="line"/>
      <point x="521" y="407" type="line"/>
      <point x="295" y="407" type="line"/>
      <point x="358" y="680" type="line"/>
      <point x="226" y="680" type="line"/>
    </contour>
    <contour>
      <point x="115" y="484" type="line"/>
      <point x="731" y="481" type="line"/>
      <point x="761" y="600" type="line"/>
      <point x="143" y="600" type="line"/>
    </contour>
  </outline>
</glyph>
<glyph name="Iogonek" format="2">
  <advance width="268"/>
  <unicode hex="012E"/>
  <outline>
    <contour>
      <point x="65" y="0" type="line" name="hr00"/>
      <point x="203" y="0" type="line"/>
      <point x="360" y="680" type="line"/>
      <point x="222" y="680" type="line"/>
    </contour>
    <contour>
      <point x="64" y="-214" type="curve" smooth="yes"/>
      <point x="94" y="-214"/>
      <point x="137" y="-208"/>
      <point x="162" y="-203" type="curve"/>
      <point x="175" y="-93" type="line" name="hr01"/>
      <point x="162" y="-94"/>
      <point x="143" y="-96"/>
      <point x="138" y="-96" type="curve" smooth="yes"/>
      <point x="128" y="-96"/>
      <point x="125" y="-89"/>
      <point x="125" y="-82" type="curve" smooth="yes"/>
      <point x="125" y="-58"/>
      <point x="170" y="-14"/>
      <point x="203" y="0" type="curve"/>
      <point x="91" y="15" type="line"/>
      <point x="56" y="-9"/>
      <point x="-19" y="-76"/>
      <point x="-19" y="-137" type="curve" smooth="yes"/>
      <point x="-19" y="-188"/>
      <point x="13" y="-214"/>
    </contour>
  </outline>
</glyph>
<glyph name="iogonek" format="2">
  <advance width="243"/>
  <unicode hex="012F"/>
  <outline>
    <contour>
      <point x="55" y="0" type="line"/>
      <point x="189" y="0" type="line"/>
      <point x="304" y="500" type="line"/>
      <point x="170" y="500" type="line"/>
    </contour>
    <contour>
      <point x="46" y="-214" type="curve" smooth="yes"/>
      <point x="76" y="-214"/>
      <point x="119" y="-208"/>
      <point x="144" y="-203" type="curve"/>
      <point x="157" y="-93" type="line" name="hr01"/>
      <point x="144" y="-94"/>
      <point x="125" y="-96"/>
      <point x="120" y="-96" type="curve" smooth="yes"/>
      <point x="110" y="-96"/>
      <point x="107" y="-89"/>
      <point x="107" y="-82" type="curve" smooth="yes"/>
      <point x="107" y="-58"/>
      <point x="156" y="-17"/>
      <point x="189" y="0" type="curve"/>
      <point x="73" y="15" type="line"/>
      <point x="38" y="-9"/>
      <point x="-37" y="-76"/>
      <point x="-37" y="-137" type="curve" smooth="yes"/>
      <point x="-37" y="-188"/>
      <point x="-5" y="-214"/>
    </contour>
    <contour>
      <point x="181" y="552" type="line"/>
      <point x="317" y="552" type="line"/>
      <point x="348" y="689" type="line"/>
      <point x="213" y="689" type="line"/>
    </contour>
  </outline>
</glyph>
<glyph name="dotlessi" format="2">
  <advance width="244"/>
  <unicode hex="0131"/>
  <outline>
    <contour>
      <point x="55" y="0" type="line" name="hr00"/>
      <point x="189" y="0" type="line"/>
      <point x="304" y="500" type="line"/>
      <point x="170" y="500" type="line"/>
    </contour>
  </outline>
</glyph>
<glyph name="eng" format="2">
  <advance width="502"/>
  <unicode hex="014B"/>
  <outline>
    <contour>
      <point x="226" y="-246" type="line"/>
      <point x="378" y="-180"/>
      <point x="421" y="-125"/>
      <point x="453" y="7" type="curve"/>
      <point x="514" y="261" type="line" smooth="yes"/>
      <point x="526" y="313"/>
      <point x="537" y="366"/>
      <point x="527" y="422" type="curve" smooth="yes"/>
      <point x="517" y="478"/>
      <point x="480" y="511"/>
      <point x="411" y="511" type="curve" smooth="yes"/>
      <point x="362" y="511"/>
      <point x="315" y="475"/>
      <point x="285" y="452" type="curve"/>
      <point x="297" y="499" type="line"/>
      <point x="170" y="499" type="line"/>
      <point x="52" y="0" type="line"/>
      <point x="179" y="0" type="line"/>
      <point x="259" y="342" type="line"/>
      <point x="287" y="361"/>
      <point x="332" y="386"/>
      <point x="355" y="386" type="curve" smooth="yes"/>
      <point x="382" y="386"/>
      <point x="394" y="371"/>
      <point x="397" y="349" type="curve" smooth="yes"/>
      <point x="400" y="325"/>
      <point x="396" y="293"/>
      <point x="388" y="261" type="curve"/>
      <point x="326" y="2" type="line" smooth="yes"/>
      <point x="310" y="-66"/>
      <point x="295" y="-81"/>
      <point x="194" y="-132" type="curve"/>
    </contour>
  </outline>
</glyph>
<glyph name="oe" format="2">
  <advance width="759"/>
  <unicode hex="0153"/>
  <outline>
    <contour>
      <point x="239" y="-12" type="curve" smooth="yes"/>
      <point x="305" y="-12"/>
      <point x="353" y="6"/>
      <point x="395" y="37" type="curve"/>
      <point x="420" y="4"/>
      <point x="467" y="-12"/>
      <point x="530" y="-12" type="curve" smooth="yes"/>
      <point x="601" y="-12"/>
      <point x="679" y="4"/>
      <point x="718" y="16" type="curve"/>
      <point x="741" y="118" type="line"/>
      <point x="696" y="114"/>
      <point x="618" y="109"/>
      <point x="568" y="109" type="curve" smooth="yes" name="hr00"/>
      <point x="525" y="109"/>
      <point x="503" y="124"/>
      <point x="497" y="149" type="curve" smooth="yes"/>
      <point x="494" y="162"/>
      <point x="495" y="177"/>
      <point x="499" y="194" type="curve"/>
      <point x="767" y="192" type="line"/>
      <point x="796" y="284" type="line"/>
      <point x="809" y="324"/>
      <point x="809" y="361"/>
      <point x="806" y="390" type="curve" smooth="yes"/>
      <point x="798" y="465"/>
      <point x="747" y="511"/>
      <point x="650" y="511" type="curve" smooth="yes"/>
      <point x="588" y="511"/>
      <point x="540" y="493"/>
      <point x="498" y="457" type="curve"/>
      <point x="471" y="491"/>
      <point x="430" y="511"/>
      <point x="362" y="511" type="curve" smooth="yes"/>
      <point x="185" y="511"/>
      <point x="123" y="389"/>
      <point x="88" y="250" type="curve" smooth="yes"/>
      <point x="76" y="201"/>
      <point x="72" y="152"/>
      <point x="80" y="105" type="curve" smooth="yes"/>
      <point x="91" y="35"/>
      <point x="137" y="-12"/>
    </contour>
    <contour>
      <point x="266" y="107" type="curve" smooth="yes"/>
      <point x="230" y="107"/>
      <point x="214" y="122"/>
      <point x="208" y="147" type="curve" smooth="yes"/>
      <point x="202" y="173"/>
      <point x="207" y="209"/>
      <point x="217" y="250" type="curve" smooth="yes"/>
      <point x="236" y="330"/>
      <point x="264" y="392"/>
      <point x="334" y="392" type="curve" smooth="yes"/>
      <point x="381" y="392"/>
      <point x="397" y="370"/>
      <point x="397" y="329" type="curve" smooth="yes"/>
      <point x="397" y="303"/>
      <point x="393" y="279"/>
      <point x="387" y="257" type="curve" smooth="yes"/>
      <point x="370" y="193"/>
      <point x="348" y="107"/>
    </contour>
    <contour>
      <point x="674" y="294" type="curve"/>
      <point x="522" y="296" type="line"/>
      <point x="536" y="356"/>
      <point x="564" y="389"/>
      <point x="626" y="389" type="curve" smooth="yes"/>
      <point x="662" y="389"/>
      <point x="677" y="380"/>
      <point x="681" y="358" type="curve" smooth="yes"/>
      <point x="684" y="343"/>
      <point x="681" y="321"/>
    </contour>
  </outline>
</glyph>
<glyph name="Tbar" format="2">
  <advance width="461"/>
  <unicode hex="0166"/>
  <outline>
    <contour>
      <point x="97" y="248" type="line"/>
      <point x="482" y="248" type="line"/>
      <point x="511" y="367" type="line"/>
      <point x="124" y="367" type="line"/>
    </contour>
    <component base="T" xOffset="3"/>
  </outline>
</glyph>
<glyph name="florin" format="2">
  <advance width="560"/>
  <unicode hex="0192"/>
  <outline>
    <contour>
      <point x="110" y="-243" type="curve" smooth="yes"/>
      <point x="216" y="-243"/>
      <point x="273" y="-206"/>
      <point x="307" y="-63" type="curve" smooth="yes"/>
      <point x="412" y="375" type="line" name="hr00"/>
      <point x="545" y="375" type="line"/>
      <point x="574" y="499" type="line"/>
      <point x="441" y="499" type="line"/>
      <point x="443" y="512" type="line"/>
      <point x="449" y="548"/>
      <point x="467" y="585"/>
      <point x="507" y="585" type="curve" smooth="yes"/>
      <point x="529" y="585"/>
      <point x="571" y="584"/>
      <point x="596" y="583" type="curve"/>
      <point x="623" y="695" type="line"/>
      <point x="590" y="702"/>
      <point x="537" y="708"/>
      <point x="501" y="708" type="curve" smooth="yes"/>
      <point x="399" y="708"/>
      <point x="357" y="663"/>
      <point x="316" y="520" type="curve" smooth="yes"/>
      <point x="310" y="499" type="line"/>
      <point x="221" y="499" type="line"/>
      <point x="193" y="375" type="line"/>
      <point x="281" y="375" type="line"/>
      <point x="177" y="-63" type="line"/>
      <point x="166" y="-111"/>
      <point x="145" y="-127"/>
      <point x="118" y="-127" type="curve" smooth="yes"/>
      <point x="98" y="-127"/>
      <point x="63" y="-125"/>
      <point x="41" y="-124" type="curve"/>
      <point x="17" y="-230" type="line"/>
      <point x="43" y="-236"/>
      <point x="87" y="-243"/>
    </contour>
  </outline>
</glyph>
<glyph name="aringacute" format="2">
  <advance width="528"/>
  <unicode hex="01FB"/>
  <outline>
    <contour>
      <point x="365" y="758" type="line" name="hr00"/>
      <point x="629" y="836" type="line"/>
      <point x="618" y="966" type="line"/>
      <point x="354" y="875" type="line"/>
    </contour>
    <component base="a"/>
    <component base="ring" xOffset="23"/>
  </outline>
</glyph>
<glyph name="oslashacute" format="2">
  <advance width="496"/>
  <unicode hex="01FF"/>
  <outline>
    <contour>
      <point x="126" y="-107" type="line"/>
      <point x="336" y="235" type="line"/>
      <point x="554" y="575" type="line"/>
      <point x="483" y="606" type="line"/>
      <point x="276" y="266" type="line"/>
      <point x="56" y="-76" type="line"/>
    </contour>
    <component base="o"/>
    <component base="acute" xOffset="24"/>
  </outline>
</glyph>
<glyph name="circumflex" format="2">
  <advance width="791"/>
  <unicode hex="02C6"/>
  <outline>
    <contour>
      <point x="353" y="575" type="line" name="hr00"/>
      <point x="483" y="575" type="line"/>
      <point x="541" y="639" type="line"/>
      <point x="565" y="575" type="line"/>
      <point x="687" y="575" type="line"/>
      <point x="601" y="750" type="line"/>
      <point x="521" y="750" type="line"/>
    </contour>
  </outline>
</glyph>
<glyph name="caron" format="2">
  <advance width="791"/>
  <unicode hex="02C7"/>
  <outline>
    <contour>
      <point x="477" y="575" type="line" name="hr00"/>
      <point x="562" y="575" type="line"/>
      <point x="729" y="750" type="line"/>
      <point x="600" y="750" type="line"/>
      <point x="547" y="684" type="line"/>
      <point x="518" y="750" type="line"/>
      <point x="395" y="750" type="line"/>
    </contour>
  </outline>
</glyph>
<glyph name="breve" format="2">
  <advance width="462"/>
  <unicode hex="02D8"/>
  <outline>
    <contour>
      <point x="339" y="590" type="curve" smooth="yes"/>
      <point x="461" y="590"/>
      <point x="525" y="650"/>
      <point x="557" y="746" type="curve"/>
      <point x="436" y="746" type="line"/>
      <point x="425" y="716"/>
      <point x="405" y="702"/>
      <point x="373" y="702" type="curve" smooth="yes"/>
      <point x="336" y="702"/>
      <point x="329" y="723"/>
      <point x="331" y="746" type="curve"/>
      <point x="210" y="746" type="line" name="hr00"/>
      <point x="196" y="643"/>
      <point x="237" y="590"/>
    </contour>
  </outline>
</glyph>
<glyph name="dotaccent" format="2">
  <advance width="255"/>
  <unicode hex="02D9"/>
  <outline>
    <contour>
      <point x="206" y="582" type="line"/>
      <point x="322" y="582" type="line"/>
      <point x="354" y="719" type="line"/>
      <point x="238" y="719" type="line"/>
    </contour>
  </outline>
</glyph>
<glyph name="ring" format="2">
  <advance width="791"/>
  <unicode hex="02DA"/>
  <outline>
    <contour>
      <point x="374" y="527" type="curve" smooth="yes"/>
      <point x="436" y="527"/>
      <point x="487.059" y="566.986"/>
      <point x="503" y="635" type="curve" smooth="yes"/>
      <point x="517.059" y="694.986"/>
      <point x="496" y="743"/>
      <point x="430" y="743" type="curve" smooth="yes"/>
      <point x="366" y="743"/>
      <point x="317.47" y="696.882"/>
      <point x="302" y="636" type="curve" smooth="yes" name="hr00"/>
      <point x="286.469" y="574.879"/>
      <point x="309" y="527"/>
    </contour>
    <contour>
      <point x="396" y="606" type="curve" smooth="yes"/>
      <point x="379" y="606"/>
      <point x="369.146" y="620.952"/>
      <point x="374" y="636" type="curve" smooth="yes"/>
      <point x="379.146" y="651.954"/>
      <point x="393" y="663"/>
      <point x="410" y="663" type="curve" smooth="yes"/>
      <point x="424" y="663"/>
      <point x="437.139" y="651.959"/>
      <point x="432" y="635" type="curve" smooth="yes"/>
      <point x="427.139" y="618.957"/>
      <point x="413" y="606"/>
    </contour>
  </outline>
</glyph>
<glyph name="hungarumlaut" format="2">
  <advance width="689"/>
  <unicode hex="02DD"/>
  <outline>
    <contour>
      <point x="546" y="563" type="line"/>
      <point x="710" y="751" type="line"/>
      <point x="621" y="818" type="line"/>
      <point x="465" y="628" type="line"/>
    </contour>
    <contour>
      <point x="352" y="563" type="line"/>
      <point x="516" y="751" type="line"/>
      <point x="427" y="817" type="line"/>
      <point x="272" y="628" type="line"/>
    </contour>
  </outline>
</glyph>
<glyph name="tahabove-ar" format="2">
  <unicode hex="0615"/>
  <anchor x="171" y="359" name="_top"/>
  <anchor x="108" y="626" name="top"/>
  <outline>
    <contour>
      <point x="29" y="420" type="curve"/>
      <point x="106" y="432" type="line"/>
      <point x="98" y="465"/>
      <point x="119" y="485"/>
      <point x="148" y="485" type="curve" smooth="yes"/>
      <point x="190" y="485"/>
      <point x="226" y="453"/>
      <point x="234" y="420" type="curve"/>
      <point x="311" y="432" type="line"/>
      <point x="294" y="507"/>
      <point x="224" y="559"/>
      <point x="149" y="559" type="curve" smooth="yes"/>
      <point x="64" y="559"/>
      <point x="11" y="495"/>
    </contour>
    <contour>
      <point x="11" y="359" type="line"/>
      <point x="328" y="359" type="line"/>
      <point x="311" y="432" type="line"/>
      <point x="-6" y="432" type="line"/>
    </contour>
    <contour>
      <point x="27" y="426" type="line"/>
      <point x="107" y="426" type="line"/>
      <point x="65" y="608" type="line"/>
      <point x="-15" y="608" type="line"/>
    </contour>
  </outline>
</glyph>
<glyph name="question-ar" format="2">
  <advance width="481"/>
  <unicode hex="061F"/>
  <outline>
    <contour>
      <point x="319" y="208" type="line"/>
      <point x="319" y="229"/>
      <point x="317" y="268"/>
      <point x="311" y="298" type="curve" smooth="yes"/>
      <point x="305" y="332"/>
      <point x="273" y="368"/>
      <point x="217" y="408" type="curve" smooth="yes"/>
      <point x="146" y="458"/>
      <point x="113" y="485"/>
      <point x="113" y="522" type="curve" smooth="yes"/>
      <point x="113" y="567"/>
      <point x="141" y="572"/>
      <point x="186" y="572" type="curve" smooth="yes"/>
      <point x="237" y="572"/>
      <point x="298" y="565"/>
      <point x="329" y="560" type="curve"/>
      <point x="315" y="665" type="line"/>
      <point x="276" y="677"/>
      <point x="206" y="692"/>
      <point x="155" y="692" type="curve" smooth="yes"/>
      <point x="42" y="692"/>
      <point x="-29" y="648"/>
      <point x="-29" y="536" type="curve" smooth="yes"/>
      <point x="-29" y="441"/>
      <point x="12" y="397"/>
      <point x="122" y="321" type="curve" smooth="yes"/>
      <point x="158" y="296"/>
      <point x="179" y="270"/>
      <point x="184" y="248" type="curve" smooth="yes"/>
      <point x="193" y="208" type="line"/>
    </contour>
    <contour>
      <point x="373" y="0" type="line"/>
      <point x="335" y="168" type="line"/>
      <point x="199" y="168" type="line"/>
      <point x="237" y="0" type="line"/>
    </contour>
  </outline>
</glyph>
<glyph name="alef-ar" format="2">
  <advance width="314"/>
  <unicode hex="0627"/>
  <anchor x="223" y="-37" name="bottom"/>
  <anchor x="44" y="739" name="top"/>
  <outline>
    <contour>
      <point x="148" y="0" type="line"/>
      <point x="282" y="0" type="line" name="hr00"/>
      <point x="120" y="700" type="line"/>
      <point x="-14" y="700" type="line"/>
    </contour>
  </outline>
</glyph>
<glyph name="reh-ar" format="2">
  <advance width="269"/>
  <unicode hex="0631"/>
  <anchor x="229" y="-350" name="bottom"/>
  <anchor x="67" y="573" name="top"/>
  <outline>
    <contour>
      <point x="130" y="-247" type="curve" smooth="yes"/>
      <point x="225" y="-247"/>
      <point x="282" y="-186"/>
      <point x="282" y="-94" type="curve" smooth="yes"/>
      <point x="282" y="-76"/>
      <point x="280" y="-56"/>
      <point x="275" y="-36" type="curve" smooth="yes"/>
      <point x="151" y="500" type="line"/>
      <point x="17" y="500" type="line"/>
      <point x="144" y="-48" type="line" smooth="yes"/>
      <point x="148" y="-66"/>
      <point x="150" y="-80"/>
      <point x="150" y="-91" type="curve" smooth="yes"/>
      <point x="150" y="-117"/>
      <point x="140" y="-127"/>
      <point x="123" y="-127" type="curve" smooth="yes"/>
      <point x="110" y="-127"/>
      <point x="98" y="-125"/>
      <point x="76" y="-123" type="curve"/>
      <point x="80" y="-244" type="line"/>
      <point x="97" y="-246"/>
      <point x="119" y="-247"/>
    </contour>
  </outline>
</glyph>
<glyph name="sad-ar" format="2">
  <advance width="1219"/>
  <unicode hex="0635"/>
  <anchor x="924" y="-100" name="bottom"/>
  <anchor x="768" y="573" name="top"/>
  <outline>
    <contour>
      <point x="450" y="-248" type="curve" smooth="yes"/>
      <point x="628" y="-248"/>
      <point x="729" y="-144"/>
      <point x="695" y="1" type="curve" smooth="yes"/>
      <point x="580" y="500" type="line"/>
      <point x="446" y="500" type="line"/>
      <point x="564" y="-11" type="line" smooth="yes"/>
      <point x="582" y="-87"/>
      <point x="541" y="-128"/>
      <point x="443" y="-128" type="curve" smooth="yes"/>
      <point x="214" y="-128"/>
      <point x="218" y="36"/>
      <point x="200" y="280" type="curve"/>
      <point x="68" y="287" type="line"/>
      <point x="91" y="-23"/>
      <point x="111" y="-248"/>
    </contour>
    <contour>
      <point x="694" y="0" type="line"/>
      <point x="1207" y="0" type="line"/>
      <point x="1150" y="247" type="line" smooth="yes"/>
      <point x="1124" y="359"/>
      <point x="1053" y="500"/>
      <point x="869" y="500" type="curve" smooth="yes"/>
      <point x="697" y="500"/>
      <point x="642" y="383"/>
      <point x="583" y="280" type="curve"/>
      <point x="628" y="153" type="line"/>
      <point x="654" y="199"/>
      <point x="732" y="380"/>
      <point x="876" y="380" type="curve" smooth="yes"/>
      <point x="949" y="380"/>
      <point x="995" y="336"/>
      <point x="1019" y="235" type="curve" smooth="yes"/>
      <point x="1071" y="0" type="line"/>
      <point x="1177" y="120" type="line"/>
      <point x="667" y="120" type="line"/>
    </contour>
  </outline>
</glyph>
<glyph name="waw-ar" format="2">
  <advance width="575"/>
  <unicode hex="0648"/>
  <anchor x="422" y="-350" name="bottom"/>
  <anchor x="208" y="573" name="top"/>
  <outline>
    <contour>
      <point x="382" y="-246" type="curve" smooth="yes"/>
      <point x="510" y="-246"/>
      <point x="572" y="-178"/>
      <point x="572" y="-74" type="curve" smooth="yes"/>
      <point x="572" y="-51"/>
      <point x="569" y="-26"/>
      <point x="563" y="0" type="curve" smooth="yes"/>
      <point x="447" y="500" type="line"/>
      <point x="210" y="500" type="line" smooth="yes"/>
      <point x="54" y="500"/>
      <point x="27" y="436"/>
      <point x="27" y="337" type="curve" smooth="yes"/>
      <point x="27" y="203"/>
      <point x="77" y="0"/>
      <point x="316" y="0" type="curve" smooth="yes"/>
      <point x="430" y="0" type="line"/>
      <point x="402" y="120" type="line"/>
      <point x="298" y="120" type="line" smooth="yes"/>
      <point x="181" y="120"/>
      <point x="156" y="255"/>
      <point x="156" y="336" type="curve" smooth="yes"/>
      <point x="156" y="379"/>
      <point x="163" y="380"/>
      <point x="228" y="380" type="curve" smooth="yes"/>
      <point x="416" y="380" type="line"/>
      <point x="332" y="423" type="line"/>
      <point x="432" y="-12" type="line" smooth="yes"/>
      <point x="437" y="-36"/>
      <point x="440" y="-54"/>
      <point x="440" y="-70" type="curve" smooth="yes"/>
      <point x="440" y="-113"/>
      <point x="419" y="-126"/>
      <point x="371" y="-126" type="curve" smooth="yes"/>
      <point x="335" y="-126"/>
      <point x="286" y="-119"/>
      <point x="229" y="-107" type="curve"/>
      <point x="219" y="-226" type="line"/>
      <point x="275" y="-238"/>
      <point x="338" y="-246"/>
    </contour>
  </outline>
</glyph>
<glyph name="damma-ar" format="2">
  <unicode hex="064F"/>
  <anchor x="91" y="528" name="_top"/>
  <anchor x="36" y="766" name="top"/>
  <outline>
    <contour>
      <point x="-6" y="595" type="curve"/>
      <point x="64" y="607" type="line"/>
      <point x="58" y="630"/>
      <point x="70" y="643"/>
      <point x="82" y="643" type="curve" smooth="yes"/>
      <point x="105" y="643"/>
      <point x="124" y="618"/>
      <point x="129" y="595" type="curve"/>
      <point x="200" y="607" type="line"/>
      <point x="185" y="670"/>
      <point x="134" y="714"/>
      <point x="80" y="714" type="curve" smooth="yes"/>
      <point x="17" y="714"/>
      <point x="-20" y="658"/>
    </contour>
    <contour>
      <point x="-46" y="534" type="line"/>
      <point x="217" y="534" type="line"/>
      <point x="200" y="607" type="line"/>
      <point x="-63" y="607" type="line"/>
    </contour>
  </outline>
</glyph>
<glyph name="madda-ar" format="2">
  <unicode hex="0653"/>
  <anchor x="112" y="537" name="_top"/>
  <anchor x="60" y="759" name="top"/>
  <outline>
    <contour>
      <point x="-17" y="537" type="line"/>
      <point x="31" y="596" type="line"/>
      <point x="-5" y="591" type="line"/>
      <point x="32" y="558"/>
      <point x="77" y="543"/>
      <point x="122" y="543" type="curve" smooth="yes"/>
      <point x="193" y="543"/>
      <point x="225" y="583"/>
      <point x="245" y="623" type="curve"/>
      <point x="189" y="661" type="line"/>
      <point x="178" y="651"/>
      <point x="161" y="646"/>
      <point x="141" y="646" type="curve" smooth="yes"/>
      <point x="113" y="646"/>
      <point x="85" y="656"/>
      <point x="66" y="670" type="curve"/>
      <point x="-32" y="670" type="line"/>
      <point x="-74" y="582" type="line"/>
    </contour>
  </outline>
</glyph>
<glyph name="zero-ar" format="2">
  <advance width="294"/>
  <unicode hex="0660"/>
  <outline>
    <contour>
      <point x="103" y="151" type="line"/>
      <point x="237" y="151" type="line"/>
      <point x="209" y="271" type="line"/>
      <point x="75" y="271" type="line"/>
    </contour>
  </outline>
</glyph>
<glyph name="five-ar" format="2">
  <advance width="694"/>
  <unicode hex="0665"/>
  <outline>
    <contour>
      <point x="388" y="-4" type="curve" smooth="yes"/>
      <point x="540" y="-4"/>
      <point x="630" y="88"/>
      <point x="630" y="199" type="curve" smooth="yes"/>
      <point x="630" y="337"/>
      <point x="490" y="664"/>
      <point x="264" y="664" type="curve" smooth="yes"/>
      <point x="108" y="664"/>
      <point x="51" y="508"/>
      <point x="51" y="372" type="curve" smooth="yes"/>
      <point x="51" y="170"/>
      <point x="178" y="-4"/>
    </contour>
    <contour>
      <point x="386" y="116" type="curve" smooth="yes"/>
      <point x="244" y="116"/>
      <point x="181" y="249"/>
      <point x="181" y="368" type="curve" smooth="yes"/>
      <point x="181" y="451"/>
      <point x="212" y="544"/>
      <point x="274" y="544" type="curve" smooth="yes"/>
      <point x="371" y="544"/>
      <point x="498" y="318"/>
      <point x="498" y="210" type="curve" smooth="yes"/>
      <point x="498" y="149"/>
      <point x="457" y="116"/>
    </contour>
  </outline>
</glyph>
<glyph name="thousandseparator-ar" format="2">
  <advance width="214"/>
  <unicode hex="066C"/>
  <outline>
    <contour>
      <point x="146" y="-128" type="line"/>
      <point x="229" y="-128" type="line"/>
      <point x="197" y="85" type="line"/>
      <point x="86" y="85" type="line"/>
    </contour>
  </outline>
</glyph>
<glyph name="alefabove-ar" format="2">
  <unicode hex="0670"/>
  <anchor x="20" y="447" name="_top"/>
  <anchor x="-29" y="656" name="top"/>
  <outline>
    <contour>
      <point x="-25" y="447" type="line"/>
      <point x="64" y="447" type="line"/>
      <point x="34" y="576" type="line"/>
      <point x="-55" y="576" type="line"/>
    </contour>
  </outline>
</glyph>
<glyph name="yehbarree-ar" format="2">
  <advance width="754"/>
  <unicode hex="06D2"/>
  <anchor x="508" y="-340" name="bottom"/>
  <anchor x="185" y="190" name="top"/>
  <outline>
    <contour>
      <point x="418" y="-243" type="curve" smooth="yes"/>
      <point x="740" y="-243" type="line"/>
      <point x="712" y="-123" type="line"/>
      <point x="400" y="-123" type="line" smooth="yes"/>
      <point x="325" y="-123"/>
      <point x="257" y="-111"/>
      <point x="236" y="-19" type="curve" smooth="yes"/>
      <point x="219" y="61" type="line"/>
      <point x="173" y="0" type="line"/>
      <point x="488" y="0" type="line" smooth="yes"/>
      <point x="656" y="0"/>
      <point x="713" y="77"/>
      <point x="713" y="176" type="curve" smooth="yes"/>
      <point x="713" y="201"/>
      <point x="709" y="226"/>
      <point x="703" y="253" type="curve" smooth="yes"/>
      <point x="674" y="381" type="line"/>
      <point x="540" y="381" type="line"/>
      <point x="572" y="241" type="line" smooth="yes"/>
      <point x="577" y="218"/>
      <point x="580" y="199"/>
      <point x="580" y="183" type="curve" smooth="yes"/>
      <point x="580" y="133"/>
      <point x="549" y="120"/>
      <point x="470" y="120" type="curve" smooth="yes"/>
      <point x="166" y="120" type="line"/>
      <point x="91" y="36" type="line"/>
      <point x="105" y="-31" type="line" smooth="yes"/>
      <point x="138" y="-174"/>
      <point x="243" y="-243"/>
    </contour>
  </outline>
</glyph>
<glyph name="quoteleft" format="2">
  <advance width="174"/>
  <unicode hex="2018"/>
  <outline>
    <contour>
      <point x="96" y="424" type="line"/>
      <point x="228" y="424" type="line"/>
      <point x="333" y="679" type="line" name="hr01"/>
      <point x="233" y="679" type="line"/>
    </contour>
  </outline>
</glyph>
<glyph name="quotesinglbase" format="2">
  <advance width="150"/>
  <unicode hex="201A"/>
  <outline>
    <contour>
      <point x="495" y="1270" type="line"/>
      <point x="363" y="1270" type="line"/>
      <point x="258" y="1015" type="line"/>
      <point x="358" y="1015" type="line"/>
    </contour>
  </outline>
</glyph>
<glyph name="quotedblright" format="2">
  <advance width="364"/>
  <unicode hex="201D"/>
  <outline>
    <contour>
      <point x="333" y="680" type="line"/>
      <point x="201" y="680" type="line"/>
      <point x="96" y="425" type="line"/>
      <point x="196" y="425" type="line"/>
    </contour>
    <contour>
      <point x="143" y="680" type="line"/>
      <point x="11" y="680" type="line"/>
      <point x="-94" y="425" type="line"/>
      <point x="6" y="425" type="line"/>
    </contour>
  </outline>
</glyph>
<glyph name="daggerdbl" format="2">
  <advance width="473"/>
  <unicode hex="2021"/>
  <outline>
    <contour>
      <point x="157" y="-70" type="line" name="hr00"/>
      <point x="281" y="-70" type="line"/>
      <point x="321" y="100" type="line"/>
      <point x="459" y="100" type="line"/>
      <point x="491" y="235" type="line"/>
      <point x="353" y="235" type="line"/>
      <point x="384" y="362" type="line"/>
      <point x="521" y="362" type="line"/>
      <point x="550" y="497" type="line"/>
      <point x="415" y="497" type="line"/>
      <point x="455" y="668" type="line"/>
      <point x="330" y="668" type="line"/>
      <point x="290" y="496" type="line"/>
      <point x="152" y="497" type="line"/>
      <point x="122" y="362" type="line"/>
      <point x="258" y="362" type="line"/>
      <point x="228" y="235" type="line"/>
      <point x="90" y="235" type="line"/>
      <point x="59" y="100" type="line"/>
      <point x="196" y="100" type="line"/>
    </contour>
  </outline>
</glyph>
<glyph name="perthousand" format="2">
  <advance width="833"/>
  <unicode hex="2030"/>
  <outline>
    <contour>
      <point x="225" y="-24" type="line"/>
      <point x="596" y="697" type="line"/>
      <point x="516" y="720" type="line"/>
      <point x="144" y="-2" type="line"/>
    </contour>
    <contour>
      <point x="429" y="0" type="curve" smooth="yes"/>
      <point x="506" y="0"/>
      <point x="561" y="49"/>
      <point x="585" y="146" type="curve" smooth="yes"/>
      <point x="609" y="243"/>
      <point x="578" y="291"/>
      <point x="501" y="291" type="curve" smooth="yes"/>
      <point x="424" y="291"/>
      <point x="369" y="243"/>
      <point x="345" y="146" type="curve" smooth="yes"/>
      <point x="321" y="49"/>
      <point x="352" y="0"/>
    </contour>
    <contour>
      <point x="448" y="80" type="curve" smooth="yes"/>
      <point x="430" y="80"/>
      <point x="431" y="100"/>
      <point x="443" y="146" type="curve" smooth="yes"/>
      <point x="454" y="192"/>
      <point x="463" y="211"/>
      <point x="481" y="211" type="curve" smooth="yes"/>
      <point x="499" y="211"/>
      <point x="498" y="192"/>
      <point x="487" y="146" type="curve" smooth="yes"/>
      <point x="475" y="100"/>
      <point x="466" y="80"/>
    </contour>
    <contour>
      <point x="239" y="410" type="curve" smooth="yes"/>
      <point x="316" y="410"/>
      <point x="371" y="459"/>
      <point x="395" y="556" type="curve" smooth="yes"/>
      <point x="419" y="653"/>
      <point x="388" y="701"/>
      <point x="311" y="701" type="curve" smooth="yes"/>
      <point x="234" y="701"/>
      <point x="179" y="653"/>
      <point x="155" y="556" type="curve" smooth="yes"/>
      <point x="131" y="459"/>
      <point x="162" y="410"/>
    </contour>
    <contour>
      <point x="259" y="490" type="curve" smooth="yes"/>
      <point x="241" y="490"/>
      <point x="242" y="510"/>
      <point x="253" y="556" type="curve" smooth="yes"/>
      <point x="265" y="602"/>
      <point x="273" y="621"/>
      <point x="291" y="621" type="curve" smooth="yes"/>
      <point x="309" y="621"/>
      <point x="309" y="602"/>
      <point x="297" y="556" type="curve" smooth="yes"/>
      <point x="286" y="510"/>
      <point x="277" y="490"/>
    </contour>
    <contour>
      <point x="686" y="0" type="curve" smooth="yes"/>
      <point x="763" y="0"/>
      <point x="818" y="49"/>
      <point x="842" y="146" type="curve" smooth="yes"/>
      <point x="866" y="243"/>
      <point x="835" y="291"/>
      <point x="758" y="291" type="curve" smooth="yes"/>
      <point x="681" y="291"/>
      <point x="626" y="243"/>
      <point x="602" y="146" type="curve" smooth="yes"/>
      <point x="578" y="49"/>
      <point x="609" y="0"/>
    </contour>
    <contour>
      <point x="705" y="80" type="curve" smooth="yes"/>
      <point x="687" y="80"/>
      <point x="688" y="100"/>
      <point x="700" y="146" type="curve" smooth="yes"/>
      <point x="711" y="192"/>
      <point x="720" y="211"/>
      <point x="738" y="211" type="curve" smooth="yes"/>
      <point x="756" y="211"/>
      <point x="755" y="192"/>
      <point x="744" y="146" type="curve" smooth="yes"/>
      <point x="732" y="100"/>
      <point x="723" y="80"/>
    </contour>
  </outline>
</glyph>
<glyph name="guilsinglright" format="2">
  <advance width="234"/>
  <unicode hex="203A"/>
  <outline>
    <contour>
      <point x="122" y="436" type="line"/>
      <point x="89" y="316" type="line"/>
      <point x="169" y="239" type="line"/>
      <point x="56" y="174" type="line"/>
      <point x="19" y="43" type="line"/>
      <point x="269" y="206" type="line"/>
      <point x="292" y="267" type="line"/>
    </contour>
  </outline>
</glyph>
<glyph name="fraction" format="2">
  <advance width="73"/>
  <unicode hex="2044"/>
  <outline>
    <contour>
      <point x="-32" y="-32" type="line" name="hr00"/>
      <point x="399" y="666" type="line"/>
      <point x="273" y="710" type="line"/>
      <point x="-158" y="12" type="line"/>
    </contour>
  </outline>
</glyph>
<glyph name="zerosuperior" format="2">
  <advance width="280"/>
  <unicode hex="2070"/>
  <outline>
    <contour>
      <point x="245" y="467" type="curve" smooth="yes"/>
      <point x="282" y="467"/>
      <point x="314" y="471"/>
      <point x="340" y="489" type="curve" smooth="yes"/>
      <point x="374" y="513"/>
      <point x="396.85" y="559.037"/>
      <point x="415" y="632" type="curve" smooth="yes"/>
      <point x="446.85" y="760.037"/>
      <point x="410" y="801"/>
      <point x="328" y="801" type="curve" smooth="yes" name="hr00"/>
      <point x="292" y="801"/>
      <point x="260" y="796"/>
      <point x="234" y="777" type="curve" smooth="yes"/>
      <point x="200" y="752"/>
      <point x="175.15" y="704.963"/>
      <point x="157" y="632" type="curve" smooth="yes"/>
      <point x="125.15" y="503.963"/>
      <point x="160" y="467"/>
    </contour>
    <contour>
      <point x="269" y="562" type="curve" smooth="yes"/>
      <point x="256" y="562"/>
      <point x="250.648" y="567.088"/>
      <point x="267" y="632" type="curve" smooth="yes"/>
      <point x="283.649" y="698.09"/>
      <point x="292" y="706"/>
      <point x="305" y="706" type="curve" smooth="yes"/>
      <point x="319" y="706"/>
      <point x="321.649" y="698.09"/>
      <point x="305" y="632" type="curve" smooth="yes"/>
      <point x="288.648" y="567.088"/>
      <point x="283" y="562"/>
    </contour>
  </outline>
</glyph>
<glyph name="foursuperior" format="2">
  <advance width="280"/>
  <unicode hex="2074"/>
  <outline>
    <contour>
      <point x="258" y="478" type="line" name="hr00"/>
      <point x="363" y="478" type="line"/>
      <point x="371" y="513" type="line"/>
      <point x="382" y="513" type="line"/>
      <point x="406" y="608" type="line"/>
      <point x="395" y="608" type="line"/>
      <point x="418" y="698" type="line"/>
      <point x="327" y="698" type="line"/>
      <point x="290" y="608" type="line"/>
      <point x="263" y="608" type="line"/>
      <point x="360" y="790" type="line"/>
      <point x="242" y="790" type="line"/>
      <point x="153" y="601" type="line"/>
      <point x="131" y="513" type="line"/>
      <point x="266" y="513" type="line"/>
    </contour>
  </outline>
</glyph>
<glyph name="sixsuperior" format="2">
  <advance width="280"/>
  <unicode hex="2076"/>
  <outline>
    <contour>
      <point x="252" y="467" type="curve" smooth="yes"/>
      <point x="327" y="467"/>
      <point x="379.56" y="501.855"/>
      <point x="400" y="582" type="curve" smooth="yes"/>
      <point x="417.561" y="650.859"/>
      <point x="393" y="687"/>
      <point x="322" y="687" type="curve" smooth="yes"/>
      <point x="312" y="687"/>
      <point x="297" y="685"/>
      <point x="283" y="682" type="curve"/>
      <point x="286" y="695"/>
      <point x="296" y="708"/>
      <point x="322" y="708" type="curve" smooth="yes"/>
      <point x="342" y="708"/>
      <point x="387" y="705"/>
      <point x="415" y="702" type="curve"/>
      <point x="442" y="789" type="line" name="hr00"/>
      <point x="414" y="794"/>
      <point x="367" y="801"/>
      <point x="341" y="801" type="curve" smooth="yes"/>
      <point x="235" y="801"/>
      <point x="188.378" y="733.905"/>
      <point x="160" y="622" type="curve" smooth="yes"/>
      <point x="135.377" y="524.904"/>
      <point x="160" y="467"/>
    </contour>
    <contour>
      <point x="270" y="559" type="curve" smooth="yes"/>
      <point x="259" y="559"/>
      <point x="256" y="574"/>
      <point x="260" y="593" type="curve"/>
      <point x="264" y="596"/>
      <point x="272" y="601"/>
      <point x="281" y="601" type="curve" smooth="yes"/>
      <point x="291" y="601"/>
      <point x="295.654" y="594.094"/>
      <point x="292" y="580" type="curve" smooth="yes"/>
      <point x="288.652" y="567.085"/>
      <point x="280" y="559"/>
    </contour>
  </outline>
</glyph>
<glyph name="eightsuperior" format="2">
  <advance width="280"/>
  <unicode hex="2078"/>
  <outline>
    <contour>
      <point x="246" y="467" type="curve" smooth="yes"/>
      <point x="328" y="467"/>
      <point x="379.803" y="493.05"/>
      <point x="400" y="572" type="curve" smooth="yes"/>
      <point x="409" y="609"/>
      <point x="398" y="632"/>
      <point x="386" y="640" type="curve"/>
      <point x="401" y="651"/>
      <point x="423" y="678"/>
      <point x="431" y="711" type="curve" smooth="yes"/>
      <point x="445" y="769"/>
      <point x="413" y="801"/>
      <point x="329" y="801" type="curve" smooth="yes" name="hr00"/>
      <point x="244" y="801"/>
      <point x="198" y="769"/>
      <point x="184" y="712" type="curve" smooth="yes"/>
      <point x="175" y="675"/>
      <point x="184" y="650"/>
      <point x="193" y="641" type="curve"/>
      <point x="177" y="631"/>
      <point x="152" y="605"/>
      <point x="144" y="572" type="curve" smooth="yes"/>
      <point x="124.235" y="492.941"/>
      <point x="163" y="467"/>
    </contour>
    <contour>
      <point x="267" y="552" type="curve" smooth="yes"/>
      <point x="254" y="552"/>
      <point x="250.263" y="560.922"/>
      <point x="254" y="574" type="curve" smooth="yes"/>
      <point x="256.265" y="581.929"/>
      <point x="264" y="593"/>
      <point x="272" y="599" type="curve"/>
      <point x="286" y="599" type="line"/>
      <point x="290" y="593"/>
      <point x="294.265" y="581.929"/>
      <point x="292" y="574" type="curve" smooth="yes"/>
      <point x="288.263" y="560.922"/>
      <point x="280" y="552"/>
    </contour>
    <contour>
      <point x="290" y="672" type="line"/>
      <point x="287" y="678"/>
      <point x="283" y="689"/>
      <point x="285" y="697" type="curve" smooth="yes"/>
      <point x="289" y="710"/>
      <point x="297" y="716"/>
      <point x="308" y="716" type="curve" smooth="yes"/>
      <point x="320" y="716"/>
      <point x="324" y="709"/>
      <point x="321" y="697" type="curve" smooth="yes"/>
      <point x="319" y="689"/>
      <point x="311" y="678"/>
      <point x="304" y="672" type="curve"/>
    </contour>
  </outline>
</glyph>
<glyph name="ninesuperior" format="2">
  <advance width="280"/>
  <unicode hex="2079"/>
  <outline>
    <contour>
      <point x="237" y="467" type="curve" smooth="yes"/>
      <point x="338" y="467"/>
      <point x="380.992" y="521.002"/>
      <point x="410" y="636" type="curve" smooth="yes"/>
      <point x="436.992" y="743.002"/>
      <point x="413" y="801"/>
      <point x="320" y="801" type="curve" smooth="yes"/>
      <point x="245" y="801"/>
      <point x="190.652" y="759.089"/>
      <point x="172" y="685" type="curve" smooth="yes"/>
      <point x="154.651" y="616.087"/>
      <point x="180" y="581"/>
      <point x="248" y="581" type="curve" smooth="yes"/>
      <point x="265" y="581"/>
      <point x="285" y="586"/>
      <point x="284" y="585" type="curve"/>
      <point x="282" y="575"/>
      <point x="273" y="562"/>
      <point x="246" y="562" type="curve" smooth="yes"/>
      <point x="218" y="562"/>
      <point x="181" y="565"/>
      <point x="160" y="568" type="curve"/>
      <point x="132" y="481" type="line" name="hr00"/>
      <point x="157" y="475"/>
      <point x="202" y="467"/>
    </contour>
    <contour>
      <point x="290" y="663" type="curve" smooth="yes"/>
      <point x="282" y="663"/>
      <point x="275.527" y="671.11"/>
      <point x="279" y="685" type="curve" smooth="yes"/>
      <point x="282.531" y="699.125"/>
      <point x="291" y="708"/>
      <point x="301" y="708" type="curve" smooth="yes"/>
      <point x="313" y="708"/>
      <point x="317" y="696"/>
      <point x="310" y="669" type="curve"/>
      <point x="305" y="666"/>
      <point x="296" y="663"/>
    </contour>
  </outline>
</glyph>
<glyph name="Euro" format="2">
  <advance width="560"/>
  <unicode hex="20AC"/>
  <outline>
    <contour>
      <point x="130" y="357" type="line"/>
      <point x="531" y="357" type="line"/>
      <point x="555" y="462" type="line"/>
      <point x="155" y="462" type="line"/>
    </contour>
    <contour>
      <point x="91" y="183" type="line"/>
      <point x="492" y="183" type="line"/>
      <point x="516" y="288" type="line"/>
      <point x="115" y="288" type="line"/>
    </contour>
    <contour>
      <point x="348" y="-12" type="curve" smooth="yes"/>
      <point x="402" y="-12"/>
      <point x="473" y="3"/>
      <point x="512" y="14" type="curve"/>
      <point x="523" y="117" type="line"/>
      <point x="488" y="112"/>
      <point x="421" y="105"/>
      <point x="366" y="105" type="curve" smooth="yes"/>
      <point x="310" y="105"/>
      <point x="287" y="136"/>
      <point x="287" y="189" type="curve" smooth="yes"/>
      <point x="287" y="374"/>
      <point x="359" y="555"/>
      <point x="484" y="555" type="curve" smooth="yes"/>
      <point x="542" y="555"/>
      <point x="598" y="549"/>
      <point x="624" y="544" type="curve"/>
      <point x="655" y="643" type="line"/>
      <point x="618" y="655"/>
      <point x="547" y="672"/>
      <point x="489" y="672" type="curve" smooth="yes"/>
      <point x="237" y="672"/>
      <point x="149" y="385"/>
      <point x="149" y="180" type="curve" smooth="yes"/>
      <point x="149" y="57"/>
      <point x="213" y="-12"/>
    </contour>
  </outline>
</glyph>
<glyph name="Omega" format="2">
  <advance width="560"/>
  <unicode hex="2126"/>
  <outline>
    <contour>
      <point x="115" y="-9" type="line"/>
      <point x="323" y="-9" type="line"/>
      <point x="323" y="90" type="line"/>
      <point x="289" y="148"/>
      <point x="245" y="259"/>
      <point x="245" y="350" type="curve" smooth="yes"/>
      <point x="245" y="496"/>
      <point x="258" y="552"/>
      <point x="343" y="552" type="curve" smooth="yes"/>
      <point x="428" y="552"/>
      <point x="441" y="496"/>
      <point x="441" y="350" type="curve" smooth="yes"/>
      <point x="441" y="259"/>
      <point x="397" y="148"/>
      <point x="363" y="90" type="curve"/>
      <point x="363" y="-9" type="line"/>
      <point x="571" y="-9" type="line"/>
      <point x="571" y="105" type="line"/>
      <point x="491" y="105" type="line"/>
      <point x="531" y="151"/>
      <point x="583" y="259"/>
      <point x="583" y="385" type="curve" smooth="yes"/>
      <point x="583" y="584"/>
      <point x="516" y="672"/>
      <point x="343" y="672" type="curve" smooth="yes"/>
      <point x="170" y="672"/>
      <point x="103" y="584"/>
      <point x="103" y="385" type="curve" smooth="yes"/>
      <point x="103" y="259"/>
      <point x="155" y="151"/>
      <point x="195" y="105" type="curve"/>
      <point x="115" y="105" type="line" name="hr00"/>
    </contour>
  </outline>
</glyph>
<glyph name="Delta" format="2">
  <advance width="560"/>
  <unicode hex="2206"/>
  <outline>
    <contour>
      <point x="82" y="0" type="line"/>
      <point x="554" y="0" type="line"/>
      <point x="554" y="102" type="line"/>
      <point x="431" y="660" type="line"/>
      <point x="206" y="660" type="line"/>
      <point x="82" y="104" type="line" name="hr00"/>
    </contour>
    <contour>
      <point x="215" y="114" type="line"/>
      <point x="305" y="548" type="line"/>
      <point x="332" y="548" type="line"/>
      <point x="421" y="114" type="line"/>
    </contour>
  </outline>
</glyph>
<glyph name="product" format="2">
  <advance width="560"/>
  <unicode hex="220F"/>
  <outline>
    <contour>
      <point x="178" y="-180" type="line"/>
      <point x="316" y="-180" type="line"/>
      <point x="316" y="640" type="line"/>
      <point x="429" y="640" type="line"/>
      <point x="429" y="-180" type="line" name="hr00"/>
      <point x="567" y="-180" type="line"/>
      <point x="567" y="640" type="line"/>
      <point x="624" y="640" type="line"/>
      <point x="624" y="760" type="line"/>
      <point x="125" y="760" type="line"/>
      <point x="125" y="640" type="line"/>
      <point x="178" y="640" type="line"/>
    </contour>
  </outline>
</glyph>
<glyph name="minus" format="2">
  <advance width="560"/>
  <unicode hex="2212"/>
  <outline>
    <contour>
      <point x="119" y="191" type="line" name="hr00"/>
      <point x="555" y="191" type="line"/>
      <point x="555" y="311" type="line"/>
      <point x="119" y="311" type="line"/>
    </contour>
  </outline>
</glyph>
<glyph name="infinity" format="2">
  <advance width="560"/>
  <unicode hex="221E"/>
  <outline>
    <contour>
      <point x="461" y="121" type="curve" smooth="yes"/>
      <point x="551" y="121"/>
      <point x="600" y="177"/>
      <point x="600" y="292" type="curve" smooth="yes"/>
      <point x="600" y="407"/>
      <point x="551" y="463"/>
      <point x="463" y="463" type="curve" smooth="yes"/>
      <point x="395" y="463"/>
      <point x="350" y="426"/>
      <point x="312" y="292" type="curve"/>
      <point x="350" y="158"/>
      <point x="395" y="121"/>
    </contour>
    <contour>
      <point x="233" y="121" type="curve" smooth="yes"/>
      <point x="299" y="121"/>
      <point x="344" y="158"/>
      <point x="382" y="292" type="curve" name="hr00"/>
      <point x="344" y="426"/>
      <point x="299" y="463"/>
      <point x="231" y="463" type="curve" smooth="yes"/>
      <point x="143" y="463"/>
      <point x="94" y="407"/>
      <point x="94" y="291" type="curve" smooth="yes"/>
      <point x="94" y="177"/>
      <point x="143" y="121"/>
    </contour>
    <contour>
      <point x="252" y="236" type="curve" smooth="yes"/>
      <point x="225" y="236"/>
      <point x="216" y="259"/>
      <point x="216" y="291" type="curve" smooth="yes"/>
      <point x="216" y="325"/>
      <point x="224" y="348"/>
      <point x="252" y="348" type="curve" smooth="yes"/>
      <point x="271" y="348"/>
      <point x="285" y="326"/>
      <point x="302" y="292" type="curve"/>
      <point x="285" y="260"/>
      <point x="271" y="236"/>
    </contour>
    <contour>
      <point x="442" y="236" type="curve" smooth="yes"/>
      <point x="423" y="236"/>
      <point x="409" y="260"/>
      <point x="392" y="292" type="curve"/>
      <point x="409" y="326"/>
      <point x="423" y="348"/>
      <point x="442" y="348" type="curve" smooth="yes"/>
      <point x="470" y="348"/>
      <point x="478" y="325"/>
      <point x="478" y="291" type="curve" smooth="yes"/>
      <point x="478" y="259"/>
      <point x="469" y="236"/>
    </contour>
  </outline>
</glyph>
<glyph name="integral" format="2">
  <advance width="560"/>
  <unicode hex="222B"/>
  <outline>
    <contour>
      <point x="267" y="-199" type="curve" smooth="yes"/>
      <point x="349" y="-199"/>
      <point x="416" y="-158"/>
      <point x="416" y="-16" type="curve" name="hr00"/>
      <point x="416" y="592" type="line"/>
      <point x="416" y="642"/>
      <point x="426" y="661"/>
      <point x="464" y="661" type="curve" smooth="yes"/>
      <point x="487" y="661"/>
      <point x="514" y="659"/>
      <point x="528" y="657" type="curve"/>
      <point x="532" y="767" type="line"/>
      <point x="503" y="773"/>
      <point x="455" y="781"/>
      <point x="427" y="781" type="curve" smooth="yes"/>
      <point x="317" y="781"/>
      <point x="278" y="736"/>
      <point x="278" y="593" type="curve" smooth="yes"/>
      <point x="278" y="-13" type="line"/>
      <point x="278" y="-63"/>
      <point x="265" y="-79"/>
      <point x="227" y="-79" type="curve" smooth="yes"/>
      <point x="207" y="-79"/>
      <point x="185" y="-77"/>
      <point x="174" y="-76" type="curve"/>
      <point x="170" y="-186" type="line"/>
      <point x="195" y="-192"/>
      <point x="239" y="-199"/>
    </contour>
  </outline>
</glyph>
<glyph name="approxequal" format="2">
  <advance width="560"/>
  <unicode hex="2248"/>
  <outline>
    <contour>
      <point x="440" y="265" type="curve" smooth="yes"/>
      <point x="485" y="265"/>
      <point x="531" y="294"/>
      <point x="555" y="316" type="curve"/>
      <point x="546" y="423" type="line"/>
      <point x="519" y="407"/>
      <point x="472" y="385"/>
      <point x="443" y="385" type="curve" smooth="yes"/>
      <point x="395" y="385"/>
      <point x="293" y="429"/>
      <point x="238" y="429" type="curve" smooth="yes"/>
      <point x="194" y="429"/>
      <point x="141" y="399"/>
      <point x="114" y="377" type="curve"/>
      <point x="124" y="270" type="line"/>
      <point x="151" y="287"/>
      <point x="199" y="309"/>
      <point x="234" y="309" type="curve" smooth="yes"/>
      <point x="273" y="309"/>
      <point x="386" y="265"/>
    </contour>
    <contour>
      <point x="440" y="45" type="curve" smooth="yes"/>
      <point x="485" y="45"/>
      <point x="531" y="74"/>
      <point x="555" y="96" type="curve"/>
      <point x="546" y="203" type="line"/>
      <point x="519" y="187"/>
      <point x="472" y="165"/>
      <point x="443" y="165" type="curve" smooth="yes"/>
      <point x="395" y="165"/>
      <point x="293" y="209"/>
      <point x="238" y="209" type="curve" smooth="yes"/>
      <point x="194" y="209"/>
      <point x="141" y="179"/>
      <point x="114" y="157" type="curve"/>
      <point x="124" y="50" type="line"/>
      <point x="151" y="67"/>
      <point x="199" y="89"/>
      <point x="234" y="89" type="curve" smooth="yes"/>
      <point x="273" y="89"/>
      <point x="386" y="45"/>
    </contour>
  </outline>
</glyph>
<glyph name="lessequal" format="2">
  <advance width="560"/>
  <unicode hex="2264"/>
  <outline>
    <contour>
      <point x="539" y="153" type="line"/>
      <point x="539" y="283" type="line"/>
      <point x="267" y="337" type="line"/>
      <point x="539" y="386" type="line" name="hr00"/>
      <point x="539" y="516" type="line"/>
      <point x="118" y="390" type="line"/>
      <point x="118" y="274" type="line"/>
    </contour>
    <contour>
      <point x="118" y="19" type="line"/>
      <point x="539" y="19" type="line"/>
      <point x="539" y="139" type="line"/>
      <point x="118" y="139" type="line"/>
    </contour>
  </outline>
</glyph>
<glyph name="lozenge" format="2">
  <advance width="560"/>
  <unicode hex="25CA"/>
  <outline>
    <contour>
      <point x="268" y="0" type="line"/>
      <point x="443" y="0" type="line"/>
      <point x="591" y="336" type="line"/>
      <point x="443" y="660" type="line"/>
      <point x="268" y="660" type="line"/>
      <point x="119" y="336" type="line" name="hr00"/>
    </contour>
    <contour>
      <point x="347" y="108" type="line"/>
      <point x="252" y="330" type="line"/>
      <point x="347" y="552" type="line"/>
      <point x="364" y="552" type="line"/>
      <point x="458" y="330" type="line"/>
      <point x="364" y="108" type="line"/>
    </contour>
  </outline>
</glyph>
<glyph name="gaf-ar.init" format="2">
  <advance width="651"/>
  <unicode hex="FB94"/>
  <anchor x="364" y="-100" name="bottom"/>
  <anchor x="11" y="887" name="top"/>
  <outline>
    <contour>
      <point x="-123" y="605" type="curve"/>
      <point x="-59" y="536" type="line"/>
      <point x="-36" y="620"/>
      <point x="-13" y="695"/>
      <point x="17" y="766" type="curve"/>
      <point x="-53" y="805" type="line"/>
      <point x="-87" y="724"/>
      <point x="-99" y="686"/>
    </contour>
    <component base="keheh-ar.init"/>
  </outline>
</glyph>
<glyph name="noonghunna-ar.fina" format="2">
  <advance width="757"/>
  <unicode hex="FB9F"/>
  <outline>
    <contour>
      <point x="695" y="0" type="line"/>
      <point x="815" y="0" type="line"/>
      <point x="787" y="120" type="line"/>
      <point x="667" y="120" type="line"/>
    </contour>
    <component base="connection_r" xOffset="707"/>
    <component base="noonghunna-ar"/>
  </outline>
</glyph>
<glyph name="hehgoal-ar.fina" format="2">
  <advance width="624"/>
  <unicode hex="FBA7"/>
  <anchor x="367" y="-100" name="bottom"/>
  <anchor x="211" y="573" name="top"/>
  <outline>
    <contour>
      <point x="98" y="0" type="line"/>
      <point x="232" y="0" type="line"/>
      <point x="173" y="256" type="line" smooth="yes"/>
      <point x="163" y="300"/>
      <point x="157" y="329"/>
      <point x="157" y="347" type="curve" smooth="yes"/>
      <point x="157" y="380"/>
      <point x="177" y="380"/>
      <point x="228" y="380" type="curve" smooth="yes"/>
      <point x="393" y="380" type="line"/>
      <point x="329" y="440" type="line"/>
      <point x="429" y="0" type="line"/>
      <point x="682" y="0" type="line"/>
      <point x="654" y="120" type="line"/>
      <point x="509" y="120" type="line"/>
      <point x="539" y="95" type="line"/>
      <point x="447" y="500" type="line"/>
      <point x="210" y="500" type="line" smooth="yes"/>
      <point x="77" y="500"/>
      <point x="26" y="452"/>
      <point x="26" y="354" type="curve" smooth="yes"/>
      <point x="26" y="322"/>
      <point x="32" y="286"/>
      <point x="41" y="244" type="curve" smooth="yes"/>
    </contour>
    <component base="connection_r" xOffset="574"/>
  </outline>
</glyph>
<glyph name="hehDoachashmee-ar.fina" format="2">
  <advance width="871"/>
  <unicode hex="FBAB"/>
  <outline>
    <contour>
      <point x="810" y="0" type="line"/>
      <point x="929" y="0" type="line"/>
      <point x="901" y="120" type="line"/>
      <point x="782" y="120" type="line"/>
    </contour>
    <component base="hehDoachashmee-ar"/>
    <component base="connection_r" xOffset="821"/>
  </outline>
</glyph>
<glyph name="yehbarree-ar.fina" format="2">
  <advance width="741"/>
  <unicode hex="FBAF"/>
  <anchor x="508" y="-340" name="bottom"/>
  <anchor x="185" y="190" name="top"/>
  <outline>
    <contour>
      <point x="418" y="-243" type="curve" smooth="yes"/>
      <point x="740" y="-243" type="line"/>
      <point x="712" y="-123" type="line"/>
      <point x="400" y="-123" type="line" smooth="yes"/>
      <point x="325" y="-123"/>
      <point x="257" y="-111"/>
      <point x="236" y="-19" type="curve" smooth="yes"/>
      <point x="219" y="61" type="line"/>
      <point x="173" y="0" type="line"/>
      <point x="799" y="0" type="line"/>
      <point x="771" y="120" type="line"/>
      <point x="166" y="120" type="line"/>
      <point x="91" y="36" type="line"/>
      <point x="105" y="-31" type="line" smooth="yes"/>
      <point x="138" y="-174"/>
      <point x="243" y="-243"/>
    </contour>
    <component base="connection_r" xOffset="691"/>
  </outline>
</glyph>
<glyph name="lam_alefMaksura-ar.fina" format="2">
  <advance width="1130"/>
  <unicode hex="FC86"/>
  <outline>
    <contour>
      <point x="1069" y="0" type="line"/>
      <point x="1188" y="0" type="line"/>
      <point x="1160" y="120" type="line"/>
      <point x="1041" y="120" type="line"/>
    </contour>
    <component base="lam_alefMaksura-ar"/>
    <component base="connection_r" xOffset="1080"/>
  </outline>
</glyph>
<glyph name="sad_reh-ar" format="2">
  <advance width="1162"/>
  <unicode hex="FD0F"/>
  <anchor x="867" y="-100" name="bottom_1"/>
  <anchor x="229" y="-350" name="bottom_2"/>
  <anchor x="408" y="0" name="caret_1"/>
  <anchor x="711" y="573" name="top_1"/>
  <anchor x="67" y="573" name="top_2"/>
  <outline>
    <contour>
      <point x="639" y="0" type="line"/>
      <point x="1150" y="0" type="line"/>
      <point x="1093" y="247" type="line" smooth="yes"/>
      <point x="1067" y="359"/>
      <point x="996" y="500"/>
      <point x="812" y="500" type="curve" smooth="yes"/>
      <point x="640" y="500"/>
      <point x="585" y="383"/>
      <point x="526" y="280" type="curve"/>
      <point x="571" y="153" type="line"/>
      <point x="597" y="199"/>
      <point x="675" y="380"/>
      <point x="819" y="380" type="curve" smooth="yes"/>
      <point x="892" y="380"/>
      <point x="938" y="336"/>
      <point x="962" y="235" type="curve" smooth="yes"/>
      <point x="1014" y="0" type="line"/>
      <point x="1120" y="120" type="line"/>
      <point x="611" y="120" type="line"/>
    </contour>
    <contour>
      <point x="200" y="279" type="line"/>
      <point x="441" y="279" type="line"/>
      <point x="413" y="399" type="line"/>
      <point x="173" y="399" type="line"/>
    </contour>
    <contour>
      <point x="505" y="0" type="line"/>
      <point x="639" y="0" type="line"/>
      <point x="523" y="500" type="line"/>
      <point x="389" y="500" type="line"/>
    </contour>
    <component base="reh-ar"/>
  </outline>
</glyph>
<glyph name="sad_alefMaksura-ar.fina" format="2">
  <advance width="1716"/>
  <unicode hex="FD21"/>
  <outline>
    <contour>
      <point x="1655" y="0" type="line"/>
      <point x="1774" y="0" type="line"/>
      <point x="1746" y="120" type="line"/>
      <point x="1627" y="120" type="line"/>
    </contour>
    <component base="sad_alefMaksura-ar"/>
    <component base="connection_r" xOffset="1666"/>
  </outline>
</glyph>
<glyph name="dal-ar.fina" format="2">
  <advance width="546"/>
  <unicode hex="FEAA"/>
  <outline>
    <contour>
      <point x="485" y="0" type="line"/>
      <point x="604" y="0" type="line"/>
      <point x="576" y="120" type="line"/>
      <point x="457" y="120" type="line"/>
    </contour>
    <component base="dal-ar"/>
    <component base="connection_r" xOffset="496"/>
  </outline>
</glyph>
<glyph name="seen-ar.init" format="2">
  <advance width="915"/>
  <unicode hex="FEB3"/>
  <anchor x="569" y="-100" name="bottom"/>
  <anchor x="413" y="573" name="top"/>
  <outline>
    <contour>
      <point x="635" y="0" type="curve" smooth="yes"/>
      <point x="903" y="0" type="line"/>
      <point x="837" y="283" type="line" smooth="yes"/>
      <point x="828" y="323"/>
      <point x="787" y="434"/>
      <point x="759" y="506" type="curve"/>
      <point x="633" y="474" type="line"/>
      <point x="668" y="386"/>
      <point x="700" y="297"/>
      <point x="706" y="271" type="curve" smooth="yes"/>
      <point x="746" y="91" type="line"/>
      <point x="763" y="120" type="line"/>
      <point x="617" y="120" type="line" smooth="yes"/>
      <point x="603" y="120"/>
      <point x="588" y="129"/>
      <point x="558" y="151" type="curve"/>
      <point x="486" y="53" type="line"/>
      <point x="534" y="16"/>
      <point x="585" y="0"/>
    </contour>
    <contour>
      <point x="58" y="0" type="line"/>
      <point x="325" y="0" type="line"/>
      <point x="221" y="450" type="line"/>
      <point x="87" y="450" type="line"/>
      <point x="168" y="91" type="line"/>
      <point x="188" y="120" type="line"/>
      <point x="30" y="120" type="line"/>
    </contour>
    <contour>
      <point x="325" y="0" type="line"/>
      <point x="401" y="0" type="line" smooth="yes"/>
      <point x="514" y="0"/>
      <point x="568" y="49"/>
      <point x="568" y="151" type="curve" smooth="yes"/>
      <point x="568" y="181"/>
      <point x="563" y="216"/>
      <point x="554" y="256" type="curve" smooth="yes"/>
      <point x="509" y="450" type="line"/>
      <point x="375" y="450" type="line"/>
      <point x="422" y="244" type="line" smooth="yes"/>
      <point x="432" y="202"/>
      <point x="437" y="174"/>
      <point x="437" y="156" type="curve" smooth="yes"/>
      <point x="437" y="124"/>
      <point x="421" y="120"/>
      <point x="383" y="120" type="curve" smooth="yes"/>
      <point x="297" y="120" type="line"/>
    </contour>
    <component base="connection_l"/>
  </outline>
</glyph>
<glyph name="seen-ar.medi" format="2">
  <advance width="964"/>
  <unicode hex="FEB4"/>
  <outline>
    <contour>
      <point x="903" y="0" type="line"/>
      <point x="1022" y="0" type="line"/>
      <point x="994" y="120" type="line"/>
      <point x="875" y="120" type="line"/>
    </contour>
    <component base="seen-ar.init"/>
    <component base="connection_r" xOffset="914"/>
  </outline>
</glyph>
<glyph name="sad-ar.init" format="2">
  <advance width="847"/>
  <unicode hex="FEBB"/>
  <anchor x="552" y="-100" name="bottom"/>
  <anchor x="396" y="573" name="top"/>
  <outline>
    <contour>
      <point x="58" y="0" type="line"/>
      <point x="835" y="0" type="line"/>
      <point x="778" y="247" type="line" smooth="yes"/>
      <point x="752" y="359"/>
      <point x="682" y="500"/>
      <point x="496" y="500" type="curve" smooth="yes"/>
      <point x="327" y="500"/>
      <point x="270" y="384"/>
      <point x="211" y="280" type="curve"/>
      <point x="256" y="153" type="line"/>
      <point x="282" y="199"/>
      <point x="360" y="380"/>
      <point x="504" y="380" type="curve" smooth="yes"/>
      <point x="571" y="380"/>
      <point x="623" y="341"/>
      <point x="647" y="235" type="curve" smooth="yes"/>
      <point x="699" y="0" type="line"/>
      <point x="805" y="120" type="line"/>
      <point x="30" y="120" type="line"/>
    </contour>
    <contour>
      <point x="162" y="120" type="line"/>
      <point x="296" y="120" type="line"/>
      <point x="208" y="500" type="line"/>
      <point x="74" y="500" type="line"/>
    </contour>
    <component base="connection_l"/>
  </outline>
</glyph>
<glyph name="tah-ar.init" format="2">
  <advance width="834"/>
  <unicode hex="FEC3"/>
  <anchor x="539" y="-100" name="bottom"/>
  <anchor x="383" y="573" name="top"/>
  <outline>
    <contour>
      <point x="58" y="0" type="line"/>
      <point x="822" y="0" type="line"/>
      <point x="765" y="247" type="line" smooth="yes"/>
      <point x="739" y="359"/>
      <point x="669" y="500"/>
      <point x="483" y="500" type="curve" smooth="yes"/>
      <point x="314" y="500"/>
      <point x="257" y="384"/>
      <point x="198" y="280" type="curve"/>
      <point x="243" y="153" type="line"/>
      <point x="269" y="199"/>
      <point x="347" y="380"/>
      <point x="491" y="380" type="curve" smooth="yes"/>
      <point x="558" y="380"/>
      <point x="610" y="341"/>
      <point x="634" y="235" type="curve" smooth="yes"/>
      <point x="686" y="0" type="line"/>
      <point x="792" y="120" type="line"/>
      <point x="30" y="120" type="line"/>
    </contour>
    <contour>
      <point x="149" y="120" type="line"/>
      <point x="283" y="120" type="line"/>
      <point x="149" y="700" type="line"/>
      <point x="15" y="700" type="line"/>
    </contour>
    <component base="connection_l"/>
  </outline>
</glyph>
<glyph name="ain-ar.fina" format="2">
  <advance width="667"/>
  <unicode hex="FECA"/>
  <anchor x="420" y="-400" name="bottom"/>
  <anchor x="266" y="573" name="top"/>
  <outline>
    <contour>
      <point x="434" y="-332" type="curve" smooth="yes"/>
      <point x="479" y="-332"/>
      <point x="522" y="-326"/>
      <point x="609" y="-305" type="curve"/>
      <point x="569" y="-200" type="line"/>
      <point x="536" y="-207"/>
      <point x="464" y="-212"/>
      <point x="430" y="-212" type="curve" smooth="yes"/>
      <point x="295" y="-212"/>
      <point x="249" y="-132"/>
      <point x="249" y="-66" type="curve" smooth="yes"/>
      <point x="249" y="15"/>
      <point x="317" y="51"/>
      <point x="393" y="90" type="curve" smooth="yes"/>
      <point x="486" y="137"/>
      <point x="590" y="187"/>
      <point x="590" y="327" type="curve" smooth="yes"/>
      <point x="590" y="348"/>
      <point x="588" y="374"/>
      <point x="576" y="434" type="curve"/>
      <point x="480" y="479"/>
      <point x="369" y="500"/>
      <point x="293" y="500" type="curve" smooth="yes"/>
      <point x="207" y="500"/>
      <point x="107" y="473"/>
      <point x="31" y="428" type="curve"/>
      <point x="43" y="366" type="line" smooth="yes"/>
      <point x="70" y="231"/>
      <point x="305" y="0"/>
      <point x="566" y="0" type="curve" smooth="yes"/>
      <point x="725" y="0" type="line"/>
      <point x="697" y="120" type="line"/>
      <point x="548" y="120" type="line" smooth="yes"/>
      <point x="407" y="120"/>
      <point x="196" y="267"/>
      <point x="173" y="378" type="curve" smooth="yes"/>
      <point x="162" y="431" type="line"/>
      <point x="109" y="328" type="line"/>
      <point x="166" y="363"/>
      <point x="240" y="380"/>
      <point x="301" y="380" type="curve" smooth="yes"/>
      <point x="372" y="380"/>
      <point x="456" y="357"/>
      <point x="531" y="322" type="curve"/>
      <point x="440" y="431" type="line"/>
      <point x="452" y="377"/>
      <point x="455" y="361"/>
      <point x="455" y="346" type="curve" smooth="yes"/>
      <point x="455" y="236"/>
      <point x="377" y="196"/>
      <point x="297" y="156" type="curve" smooth="yes"/>
      <point x="209" y="113"/>
      <point x="117" y="71"/>
      <point x="117" y="-57" type="curve" smooth="yes"/>
      <point x="117" y="-196"/>
      <point x="224" y="-332"/>
    </contour>
    <component base="connection_r" xOffset="617"/>
  </outline>
</glyph>
<glyph name="lam-ar.medi" format="2">
  <advance width="402"/>
  <unicode hex="FEE0"/>
  <outline>
    <contour>
      <point x="341" y="0" type="line"/>
      <point x="460" y="0" type="line"/>
      <point x="432" y="120" type="line"/>
      <point x="313" y="120" type="line"/>
    </contour>
    <component base="lam-ar.init"/>
    <component base="connection_r" xOffset="352"/>
  </outline>
</glyph>
<glyph name="waw-ar.fina" format="2">
  <advance width="624"/>
  <unicode hex="FEEE"/>
  <outline>
    <contour>
      <point x="563" y="0" type="line"/>
      <point x="682" y="0" type="line"/>
      <point x="654" y="120" type="line"/>
      <point x="535" y="120" type="line"/>
    </contour>
    <component base="waw-ar"/>
    <component base="connection_r" xOffset="574"/>
  </outline>
</glyph>
<glyph name="lam_alef-ar.fina" format="2">
  <advance width="748"/>
  <unicode hex="FEFC"/>
  <outline>
    <contour>
      <point x="687" y="0" type="line"/>
      <point x="806" y="0" type="line"/>
      <point x="778" y="120" type="line"/>
      <point x="659" y="120" type="line"/>
    </contour>
    <component base="lam_alef-ar"/>
    <component base="connection_r" xOffset="698"/>
  </outline>
</glyph>
<glyph name="alefMaksura_alefMaksura-ar.fina" format="2">
  <advance width="1235"/>
  <anchor x="1121" y="-60" name="bottom_1"/>
  <anchor x="577" y="-300" name="bottom_2"/>
  <anchor x="680" y="0" name="caret_1"/>
  <anchor x="876" y="573" name="top_1"/>
  <anchor x="128" y="244" name="top_2"/>
  <outline>
    <contour>
      <point x="1040" y="0" type="line"/>
      <point x="1293" y="0" type="line"/>
      <point x="1265" y="120" type="line"/>
      <point x="1080" y="120" type="line"/>
      <point x="1156" y="70" type="line"/>
      <point x="1058" y="500" type="line"/>
      <point x="924" y="500" type="line"/>
    </contour>
    <contour>
      <point x="571" y="380" type="line"/>
      <point x="952" y="380" type="line"/>
      <point x="924" y="500" type="line"/>
      <point x="567" y="500" type="line"/>
    </contour>
    <contour>
      <point x="440" y="-248" type="curve" smooth="yes"/>
      <point x="723" y="-248" type="line" smooth="yes"/>
      <point x="853" y="-248"/>
      <point x="927" y="-176"/>
      <point x="927" y="-68" type="curve" smooth="yes"/>
      <point x="927" y="-47"/>
      <point x="924" y="-26"/>
      <point x="919" y="-3" type="curve" smooth="yes"/>
      <point x="890" y="123"/>
      <point x="799" y="168"/>
      <point x="667" y="207" type="curve" smooth="yes"/>
      <point x="559" y="235"/>
      <point x="495" y="243"/>
      <point x="478" y="314" type="curve" smooth="yes"/>
      <point x="477" y="320"/>
      <point x="476" y="326"/>
      <point x="476" y="332" type="curve" smooth="yes"/>
      <point x="476" y="365"/>
      <point x="504" y="380"/>
      <point x="571" y="380" type="curve"/>
      <point x="567" y="500" type="line"/>
      <point x="429" y="500"/>
      <point x="345" y="445"/>
      <point x="345" y="337" type="curve" smooth="yes"/>
      <point x="345" y="319"/>
      <point x="347" y="300"/>
      <point x="352" y="279" type="curve" smooth="yes"/>
      <point x="379" y="163"/>
      <point x="456" y="142"/>
      <point x="637" y="85" type="curve" smooth="yes"/>
      <point x="743" y="57"/>
      <point x="775" y="42"/>
      <point x="791" y="-26" type="curve" smooth="yes"/>
      <point x="794" y="-40"/>
      <point x="796" y="-52"/>
      <point x="796" y="-62" type="curve" smooth="yes"/>
      <point x="796" y="-108"/>
      <point x="767" y="-128"/>
      <point x="705" y="-128" type="curve" smooth="yes"/>
      <point x="422" y="-128" type="line" smooth="yes"/>
      <point x="327" y="-128"/>
      <point x="249" y="-74"/>
      <point x="231" y="2" type="curve" smooth="yes"/>
      <point x="227" y="22"/>
      <point x="217" y="93"/>
      <point x="211" y="176" type="curve"/>
      <point x="79" y="183" type="line"/>
      <point x="86" y="95"/>
      <point x="94" y="18"/>
      <point x="103" y="-24" type="curve" smooth="yes"/>
      <point x="133" y="-154"/>
      <point x="275" y="-248"/>
    </contour>
    <component base="connection_r" xOffset="1185"/>
  </outline>
</glyph>
<glyph name="alefMaksura_noon-ar.fina" format="2">
  <advance width="1129"/>
  <anchor x="1015" y="-60" name="bottom_1"/>
  <anchor x="473" y="-330" name="bottom_2"/>
  <anchor x="622" y="0" name="caret_1"/>
  <anchor x="868" y="573" name="top_1"/>
  <anchor x="233" y="709" name="top_2"/>
  <outline>
    <contour>
      <point x="934" y="0" type="line"/>
      <point x="1187" y="0" type="line"/>
      <point x="1159" y="120" type="line"/>
      <point x="974" y="120" type="line"/>
      <point x="1050" y="70" type="line"/>
      <point x="952" y="500" type="line"/>
      <point x="818" y="500" type="line"/>
    </contour>
    <contour>
      <point x="633" y="269" type="line"/>
      <point x="872" y="269" type="line"/>
      <point x="844" y="389" type="line"/>
      <point x="605" y="389" type="line"/>
    </contour>
    <component base="noon-ar"/>
    <component base="connection_r" xOffset="1079"/>
  </outline>
</glyph>
<glyph name="behDotless-ar.init" format="2">
  <advance width="323"/>
  <anchor x="258" y="-60" name="bottom"/>
  <anchor x="111" y="573" name="top"/>
  <outline>
    <contour>
      <point x="58" y="0" type="line"/>
      <point x="311" y="0" type="line"/>
      <point x="195" y="500" type="line"/>
      <point x="61" y="500" type="line"/>
      <point x="159" y="70" type="line"/>
      <point x="212" y="120" type="line"/>
      <point x="30" y="120" type="line"/>
    </contour>
    <component base="connection_l"/>
  </outline>
</glyph>
<glyph name="behDotless-ar.medi" format="2">
  <advance width="372"/>
  <outline>
    <contour>
      <point x="311" y="0" type="line"/>
      <point x="430" y="0" type="line"/>
      <point x="402" y="120" type="line"/>
      <point x="283" y="120" type="line"/>
    </contour>
    <component base="behDotless-ar.init"/>
    <component base="connection_r" xOffset="322"/>
  </outline>
</glyph>
<glyph name="braceright.cap" format="2">
  <advance width="287"/>
  <outline>
    <contour>
      <point x="191" y="786" type="curve"/>
      <point x="160" y="671" type="line"/>
      <point x="198" y="671"/>
      <point x="218" y="653"/>
      <point x="218" y="623" type="curve" smooth="yes"/>
      <point x="218" y="587"/>
      <point x="173" y="472"/>
      <point x="173" y="434" type="curve" smooth="yes"/>
      <point x="173" y="386"/>
      <point x="193" y="363"/>
      <point x="234" y="340" type="curve"/>
      <point x="166" y="316"/>
      <point x="134" y="285"/>
      <point x="115" y="207" type="curve"/>
      <point x="107" y="165"/>
      <point x="99" y="123"/>
      <point x="91" y="81" type="curve"/>
      <point x="81" y="42"/>
      <point x="60" y="14"/>
      <point x="2" y="9" type="curve"/>
      <point x="-20" y="-106" type="line"/>
      <point x="113" y="-101"/>
      <point x="179" y="-64"/>
      <point x="213" y="50" type="curve"/>
      <point x="222" y="102"/>
      <point x="237" y="178"/>
      <point x="242" y="196" type="curve" smooth="yes"/>
      <point x="253" y="238"/>
      <point x="263" y="260"/>
      <point x="351" y="283" type="curve"/>
      <point x="375" y="378" type="line"/>
      <point x="324" y="405"/>
      <point x="308" y="433"/>
      <point x="308" y="463" type="curve" smooth="yes"/>
      <point x="308" y="503"/>
      <point x="350" y="620"/>
      <point x="350" y="661" type="curve" smooth="yes"/>
      <point x="350" y="741"/>
      <point x="287" y="786"/>
    </contour>
  </outline>
</glyph>
<glyph name="bracketright.cap" format="2">
  <advance width="245"/>
  <outline>
    <contour>
      <point x="412" y="777" type="line"/>
      <point x="186" y="777" type="line"/>
      <point x="158" y="663" type="line"/>
      <point x="246" y="663" type="line"/>
      <point x="97" y="22" type="line"/>
      <point x="9" y="22" type="line"/>
      <point x="-19" y="-92" type="line"/>
      <point x="210" y="-92" type="line"/>
    </contour>
  </outline>
</glyph>
<glyph name="circumflex.cap.001" format="2">
  <advance width="462"/>
  <outline>
    <contour>
      <point x="213" y="779" type="line"/>
      <point x="355" y="779" type="line"/>
      <point x="417" y="834" type="line"/>
      <point x="443" y="779" type="line"/>
      <point x="565" y="779" type="line"/>
      <point x="469" y="931" type="line"/>
      <point x="389" y="931" type="line"/>
    </contour>
  </outline>
</glyph>
<glyph name="connection_l" format="2">
  <advance width="50"/>
  <outline>
    <contour>
      <point x="58" y="0" type="curve"/>
      <point x="30" y="120" type="line"/>
      <point x="22" y="120"/>
      <point x="18" y="112"/>
      <point x="18" y="99" type="curve" smooth="yes"/>
      <point x="18" y="84"/>
      <point x="32" y="0"/>
    </contour>
  </outline>
</glyph>
<glyph name="exclamdown.cap" format="2">
  <advance width="163"/>
  <outline>
    <contour>
      <point x="243" y="422" type="line"/>
      <point x="117" y="422" type="line"/>
      <point x="5" y="-20" type="line"/>
      <point x="148" y="-20" type="line"/>
    </contour>
    <contour>
      <point x="306" y="680" type="line"/>
      <point x="170" y="680" type="line"/>
      <point x="135" y="527" type="line"/>
      <point x="271" y="527" type="line"/>
    </contour>
  </outline>
</glyph>
<glyph name="fehDotless-ar.fina" format="2">
  <advance width="1090"/>
  <outline>
    <contour>
      <point x="1029" y="0" type="line"/>
      <point x="1148" y="0" type="line"/>
      <point x="1120" y="120" type="line"/>
      <point x="1001" y="120" type="line"/>
    </contour>
    <component base="fehDotless-ar"/>
    <component base="connection_r" xOffset="1040"/>
  </outline>
</glyph>
<glyph name="fehDotless-ar.init" format="2">
  <advance width="627"/>
  <anchor x="430" y="-100" name="bottom"/>
  <anchor x="274" y="573" name="top"/>
  <outline>
    <contour>
      <point x="58" y="0" type="line"/>
      <point x="615" y="0" type="line"/>
      <point x="499" y="500" type="line"/>
      <point x="262" y="500" type="line" smooth="yes"/>
      <point x="131" y="500"/>
      <point x="79" y="453"/>
      <point x="79" y="353" type="curve" smooth="yes"/>
      <point x="79" y="196"/>
      <point x="129" y="0"/>
      <point x="368" y="0" type="curve"/>
      <point x="350" y="120" type="line"/>
      <point x="233" y="120"/>
      <point x="208" y="250"/>
      <point x="208" y="347" type="curve" smooth="yes"/>
      <point x="208" y="380"/>
      <point x="228" y="380"/>
      <point x="280" y="380" type="curve" smooth="yes"/>
      <point x="469" y="380" type="line"/>
      <point x="381" y="440" type="line"/>
      <point x="465" y="60" type="line"/>
      <point x="525" y="120" type="line"/>
      <point x="30" y="120" type="line"/>
    </contour>
    <component base="connection_l"/>
  </outline>
</glyph>
<glyph name="four-persian.urdu" format="2">
  <advance width="612"/>
  <outline>
    <contour>
      <point x="158" y="0" type="line"/>
      <point x="292" y="0" type="line"/>
      <point x="191" y="434" type="line" smooth="yes"/>
      <point x="188" y="449"/>
      <point x="186" y="464"/>
      <point x="186" y="478" type="curve" smooth="yes"/>
      <point x="186" y="511"/>
      <point x="197" y="537"/>
      <point x="222" y="537" type="curve" smooth="yes"/>
      <point x="265" y="537"/>
      <point x="309" y="481"/>
      <point x="325" y="450" type="curve"/>
      <point x="334" y="502"/>
      <point x="386" y="557"/>
      <point x="496" y="557" type="curve"/>
      <point x="478" y="677" type="line"/>
      <point x="396" y="677"/>
      <point x="322" y="648"/>
      <point x="269" y="606" type="curve"/>
      <point x="338" y="618" type="line"/>
      <point x="298" y="645"/>
      <point x="254" y="657"/>
      <point x="215" y="657" type="curve" smooth="yes"/>
      <point x="114" y="657"/>
      <point x="53" y="584"/>
      <point x="53" y="484" type="curve" smooth="yes"/>
      <point x="53" y="464"/>
      <point x="55" y="444"/>
      <point x="60" y="422" type="curve" smooth="yes"/>
    </contour>
  </outline>
</glyph>
<glyph name="kafDotless-ar" format="2">
  <advance width="828"/>
  <anchor x="480" y="-100" name="bottom"/>
  <anchor x="390" y="290" name="top"/>
  <outline>
    <contour>
      <point x="390" y="0" type="curve" smooth="yes"/>
      <point x="816" y="0" type="line"/>
      <point x="654" y="700" type="line"/>
      <point x="520" y="700" type="line"/>
      <point x="664" y="70" type="line"/>
      <point x="717" y="120" type="line"/>
      <point x="372" y="120" type="line" smooth="yes"/>
      <point x="237" y="120"/>
      <point x="197" y="149"/>
      <point x="180" y="224" type="curve" smooth="yes"/>
      <point x="166" y="283"/>
      <point x="167" y="322"/>
      <point x="167" y="366" type="curve"/>
      <point x="34" y="393" type="line"/>
      <point x="34" y="343"/>
      <point x="32" y="283"/>
      <point x="51" y="201" type="curve" smooth="yes"/>
      <point x="84" y="61"/>
      <point x="191" y="0"/>
    </contour>
  </outline>
</glyph>
<glyph name="macron.cap" format="2">
  <advance width="462"/>
  <outline>
    <contour>
      <point x="249" y="806" type="line"/>
      <point x="576" y="806" type="line"/>
      <point x="601" y="915" type="line"/>
      <point x="274" y="915" type="line"/>
    </contour>
  </outline>
</glyph>
<glyph name="nine.pnum" format="2">
  <advance width="459"/>
  <outline>
    <contour>
      <point x="207" y="-10" type="curve" smooth="yes"/>
      <point x="401" y="-10"/>
      <point x="523" y="141"/>
      <point x="523" y="338" type="curve" smooth="yes"/>
      <point x="523" y="437"/>
      <point x="469" y="511"/>
      <point x="340" y="511" type="curve" smooth="yes"/>
      <point x="156" y="511"/>
      <point x="76" y="402"/>
      <point x="76" y="307" type="curve" smooth="yes"/>
      <point x="76" y="227"/>
      <point x="120" y="183"/>
      <point x="243" y="183" type="curve" smooth="yes"/>
      <point x="289" y="183"/>
      <point x="329" y="196"/>
      <point x="361" y="209" type="curve"/>
      <point x="342" y="138"/>
      <point x="305" y="111"/>
      <point x="219" y="111" type="curve" smooth="yes"/>
      <point x="161" y="111"/>
      <point x="96" y="120"/>
      <point x="63" y="126" type="curve"/>
      <point x="24" y="19" type="line" name="hr00"/>
      <point x="71" y="7"/>
      <point x="153" y="-10"/>
    </contour>
    <contour>
      <point x="283" y="293" type="curve" smooth="yes"/>
      <point x="231" y="293"/>
      <point x="211" y="305"/>
      <point x="211" y="330" type="curve" smooth="yes"/>
      <point x="211" y="370"/>
      <point x="237" y="402"/>
      <point x="311" y="402" type="curve" smooth="yes"/>
      <point x="383" y="402"/>
      <point x="390" y="359"/>
      <point x="390" y="332" type="curve" smooth="yes"/>
      <point x="390" y="326"/>
      <point x="389" y="320"/>
      <point x="388" y="316" type="curve" smooth="yes"/>
      <point x="368" y="306"/>
      <point x="326" y="293"/>
    </contour>
  </outline>
</glyph>
<glyph name="parenright.cap" format="2">
  <advance width="236"/>
  <outline>
    <contour>
      <point x="308" y="783" type="curve"/>
      <point x="180" y="783" type="line"/>
      <point x="187" y="734"/>
      <point x="196" y="630"/>
      <point x="196" y="528" type="curve" smooth="yes"/>
      <point x="196" y="318"/>
      <point x="71" y="53"/>
      <point x="-24" y="-88" type="curve"/>
      <point x="101" y="-88" type="line"/>
      <point x="202" y="41"/>
      <point x="337" y="297"/>
      <point x="337" y="528" type="curve" smooth="yes"/>
      <point x="337" y="643"/>
      <point x="320" y="741"/>
    </contour>
  </outline>
</glyph>
<glyph name="periodcentered.cap" format="2">
  <advance width="152"/>
  <outline>
    <contour>
      <point x="66" y="247" type="line" name="hr00"/>
      <point x="201" y="247" type="line"/>
      <point x="239" y="416" type="line"/>
      <point x="104" y="416" type="line"/>
    </contour>
  </outline>
</glyph>
<glyph name="questiondown.cap" format="2">
  <advance width="378"/>
  <outline>
    <contour>
      <point x="392" y="492" type="curve"/>
      <point x="266" y="492" type="line"/>
      <point x="257" y="452" type="line" smooth="yes"/>
      <point x="252" y="430"/>
      <point x="231" y="404"/>
      <point x="195" y="379" type="curve" smooth="yes"/>
      <point x="85" y="303"/>
      <point x="44" y="259"/>
      <point x="44" y="164" type="curve" smooth="yes"/>
      <point x="44" y="52"/>
      <point x="115" y="8"/>
      <point x="228" y="8" type="curve" smooth="yes"/>
      <point x="279" y="8"/>
      <point x="349" y="23"/>
      <point x="388" y="35" type="curve"/>
      <point x="402" y="140" type="line"/>
      <point x="371" y="135"/>
      <point x="310" y="128"/>
      <point x="259" y="128" type="curve" smooth="yes"/>
      <point x="214" y="128"/>
      <point x="186" y="133"/>
      <point x="186" y="178" type="curve" smooth="yes"/>
      <point x="186" y="215"/>
      <point x="219" y="242"/>
      <point x="290" y="292" type="curve" smooth="yes"/>
      <point x="346" y="332"/>
      <point x="378" y="368"/>
      <point x="384" y="402" type="curve" smooth="yes"/>
      <point x="390" y="432"/>
      <point x="392" y="471"/>
    </contour>
    <contour>
      <point x="446" y="700" type="line"/>
      <point x="310" y="700" type="line"/>
      <point x="272" y="532" type="line"/>
      <point x="408" y="532" type="line"/>
    </contour>
  </outline>
</glyph>
<glyph name="six.pnum" format="2">
  <advance width="462"/>
  <outline>
    <contour>
      <point x="235" y="-10" type="curve" smooth="yes"/>
      <point x="425" y="-10"/>
      <point x="499" y="75"/>
      <point x="499" y="194" type="curve" smooth="yes"/>
      <point x="499" y="274"/>
      <point x="455" y="318"/>
      <point x="332" y="318" type="curve" smooth="yes"/>
      <point x="286" y="318"/>
      <point x="245" y="307"/>
      <point x="214" y="292" type="curve"/>
      <point x="233" y="363"/>
      <point x="270" y="390"/>
      <point x="356" y="390" type="curve" smooth="yes"/>
      <point x="414" y="390"/>
      <point x="479" y="381"/>
      <point x="512" y="375" type="curve"/>
      <point x="551" y="482" type="line" name="hr00"/>
      <point x="504" y="494"/>
      <point x="422" y="511"/>
      <point x="368" y="511" type="curve" smooth="yes"/>
      <point x="174" y="511"/>
      <point x="52" y="360"/>
      <point x="52" y="163" type="curve" smooth="yes"/>
      <point x="52" y="64"/>
      <point x="106" y="-10"/>
    </contour>
    <contour>
      <point x="264" y="99" type="curve" smooth="yes"/>
      <point x="192" y="99"/>
      <point x="185" y="142"/>
      <point x="185" y="169" type="curve" smooth="yes"/>
      <point x="185" y="175"/>
      <point x="186" y="181"/>
      <point x="187" y="185" type="curve"/>
      <point x="207" y="195"/>
      <point x="249" y="208"/>
      <point x="292" y="208" type="curve" smooth="yes"/>
      <point x="344" y="208"/>
      <point x="364" y="196"/>
      <point x="364" y="171" type="curve" smooth="yes"/>
      <point x="364" y="131"/>
      <point x="338" y="99"/>
    </contour>
  </outline>
</glyph>
<glyph name="threedotsdowncenter-ar.alt" format="2">
  <advance width="363"/>
  <anchor x="93" y="261" name="_center"/>
  <outline>
    <contour>
      <point x="145" y="246" type="line"/>
      <point x="65" y="246" type="line"/>
      <point x="80" y="182" type="line"/>
      <point x="160" y="182" type="line"/>
    </contour>
    <contour>
      <point x="71" y="340" type="line"/>
      <point x="-18" y="340" type="line"/>
      <point x="-1" y="266" type="line"/>
      <point x="88" y="266" type="line"/>
    </contour>
    <contour>
      <point x="187" y="340" type="line"/>
      <point x="98" y="340" type="line"/>
      <point x="115" y="266" type="line"/>
      <point x="204" y="266" type="line"/>
    </contour>
  </outline>
</glyph>
<glyph name="tilde.cap" format="2">
  <advance width="456"/>
  <outline>
    <contour>
      <point x="480" y="779" type="curve" smooth="yes"/>
      <point x="517" y="779"/>
      <point x="566" y="815"/>
      <point x="594" y="842" type="curve"/>
      <point x="592" y="936" type="line"/>
      <point x="565" y="920"/>
      <point x="523" y="898"/>
      <point x="505" y="898" type="curve" smooth="yes"/>
      <point x="480" y="898"/>
      <point x="418" y="940"/>
      <point x="358" y="940" type="curve" smooth="yes"/>
      <point x="323" y="940"/>
      <point x="271" y="904"/>
      <point x="242" y="876" type="curve"/>
      <point x="246" y="783" type="line"/>
      <point x="271" y="800"/>
      <point x="312" y="822"/>
      <point x="330" y="822" type="curve" smooth="yes"/>
      <point x="367" y="822"/>
      <point x="430" y="779"/>
    </contour>
  </outline>
</glyph>
<glyph name="wasla-ar" format="2">
  <advance width="389"/>
  <anchor x="171" y="359" name="_top"/>
  <anchor x="108" y="626" name="top"/>
  <outline>
    <contour>
      <point x="29" y="420" type="curve"/>
      <point x="106" y="432" type="line"/>
      <point x="98" y="465"/>
      <point x="116" y="485"/>
      <point x="145" y="485" type="curve" smooth="yes"/>
      <point x="187" y="485"/>
      <point x="226" y="453"/>
      <point x="234" y="420" type="curve"/>
      <point x="311" y="432" type="line"/>
      <point x="294" y="507"/>
      <point x="224" y="559"/>
      <point x="149" y="559" type="curve" smooth="yes"/>
      <point x="64" y="559"/>
      <point x="11" y="495"/>
    </contour>
    <contour>
      <point x="11" y="359" type="line"/>
      <point x="328" y="359" type="line"/>
      <point x="311" y="432" type="line"/>
      <point x="-6" y="432" type="line"/>
    </contour>
  </outline>
</glyph>
<glyph name="zero.pnum" format="2">
  <advance width="504"/>
  <outline>
    <contour>
      <point x="239" y="-8" type="curve" smooth="yes"/>
      <point x="318" y="-8"/>
      <point x="383" y="12"/>
      <point x="432" y="46" type="curve" smooth="yes"/>
      <point x="527" y="112"/>
      <point x="568" y="228"/>
      <point x="568" y="328" type="curve" smooth="yes"/>
      <point x="568" y="456"/>
      <point x="501" y="509"/>
      <point x="371" y="509" type="curve" smooth="yes" name="hr00"/>
      <point x="306" y="509"/>
      <point x="249" y="494"/>
      <point x="203" y="465" type="curve" smooth="yes"/>
      <point x="101" y="400"/>
      <point x="49" y="275"/>
      <point x="49" y="156" type="curve" smooth="yes"/>
      <point x="49" y="44"/>
      <point x="127" y="-8"/>
    </contour>
    <contour>
      <point x="272" y="118" type="curve" smooth="yes"/>
      <point x="227" y="118"/>
      <point x="200" y="146"/>
      <point x="200" y="187" type="curve" smooth="yes"/>
      <point x="200" y="275"/>
      <point x="247" y="382"/>
      <point x="342" y="382" type="curve" smooth="yes"/>
      <point x="387" y="382"/>
      <point x="415" y="358"/>
      <point x="415" y="301" type="curve" smooth="yes"/>
      <point x="415" y="288"/>
      <point x="407" y="118"/>
    </contour>
  </outline>
</glyph>
